<?xml version="1.0" standalone="no"?>
<!DOCTYPE svg PUBLIC "-//W3C//DTD SVG 1.1//EN" "http://www.w3.org/Graphics/SVG/1.1/DTD/svg11.dtd" >
<svg xmlns="http://www.w3.org/2000/svg">
<metadata></metadata>
<defs>
<font id="code2001regular" horiz-adv-x="1100" vert-adv-y="2048" >
<font-face units-per-em="2048" ascent="1638" descent="-410" />
<missing-glyph horiz-adv-x="800" />
<glyph horiz-adv-x="0" vert-adv-y="0" />
<glyph horiz-adv-x="682" />
<glyph unicode=" "  horiz-adv-x="800" />
<glyph unicode="&#x09;" horiz-adv-x="800" />
<glyph unicode="&#xa0;" horiz-adv-x="800" />
<glyph unicode="!" horiz-adv-x="624" vert-adv-y="1748" d="M150 986v318q16 206 162 244q146 -38 162 -244v-318q-2 -282 -122 -658h-80q-120 376 -122 658zM212 100q6 94 100 100q94 -6 100 -100q-6 -94 -100 -100q-94 6 -100 100z" />
<glyph unicode="&#x22;" horiz-adv-x="920" vert-adv-y="752" d="M100 1560q2 126 120 128q118 -2 120 -128q0 -160 -76 -424h-88q-76 264 -76 424zM580 1560q2 126 120 128q118 -2 120 -128q0 -160 -76 -424h-88q-76 264 -76 424z" />
<glyph unicode="#" horiz-adv-x="1850" vert-adv-y="1600" d="M80 380l54 140h384l138 360h-384l54 140h384l147 380h152l-147 -380h372l147 380h152l-147 -380h384l-54 -140h-384l-138 -360h384l-55 -140h-383l-147 -380h-152l147 380h-372l-147 -380h-152l147 380h-384zM670 520h372l138 360h-372z" />
<glyph unicode="$" horiz-adv-x="1052" vert-adv-y="1940" d="M80 0v352h60q32 -72 82 -128t130 -84v619q-62 33 -136 77q-52 32 -78 64t-42 80t-16 116t66 159t206 125v188h88v-171q24 3 52 3q55 0 112 -13v181h88v-212q56 -28 92 -60l28 104h52v-368h-80v52q0 38 -28 80t-64 72v-444q82 -56 160 -132q76 -72 98 -158t22 -152 q0 -73 -37 -141.5t-96 -114.5t-147 -73v-193h-88v176q-32 -4 -64 -4q-48 0 -100 4v-176h-88v188q-94 20 -176 72l-44 -88h-52zM276 1114q0 -26 8 -56t44 -58l24 -17v267q-26 -16 -51 -55t-25 -81zM440 114q48 -10 100 -10q26 0 64 8v502q-85 59 -164 96v-596zM440 932 q78 -42 164 -88v432q-68 20 -116 20q-26 0 -48 -5v-359zM692 157q45 34 64.5 86.5t19.5 84.5q0 56 -14 100t-46 84l-24 26v-381z" />
<glyph unicode="%" horiz-adv-x="1664" vert-adv-y="1952" d="M80 1080q0 120 46 213t126 148t190 55q138 -8 186 -126q338 4 538 206h184l-876 -1752h-184l784 1566q-132 -108 -416 -114q7 -41 10 -84q0 -112 -46 -214t-132 -152t-184 -50q-74 2 -125 37t-76 99t-25 168zM224 1092q0 -50 7 -102t32 -81t67 -29q58 0 102 40t68 112 t24 148q0 42 -7 92t-26.5 84t-72.5 36q-68 0 -113 -44t-63 -113t-18 -143zM1000 304q0 120 46 213t126 148t190 55q74 0 130 -47t76 -122t20 -135q0 -112 -46 -214t-132 -152t-184 -50q-74 2 -125 37t-76 99t-25 168zM1144 316q0 -50 7 -102t32 -81t67 -29q58 0 102 40 t68 112t24 148q0 42 -7 92t-26.5 84t-72.5 36q-68 0 -113 -44t-63 -113t-18 -143z" />
<glyph unicode="&#x26;" horiz-adv-x="1376" vert-adv-y="1720" d="M80 384q4 170 124 284l204 204l-108 184q-42 74 -44 136q14 224 312 232q104 0 208 -80q76 -70 76 -196q-2 -84 -56 -144l-192 -192l94 -150q66 90 230 102q228 -12 240 -260q-20 -196 -152 -320q120 -180 280 -228v-52h-320l-112 184q-116 -88 -360 -88q-412 8 -424 384 zM272 392q2 -272 232 -280q172 4 292 100l-140 236l-104 -104l-64 104l108 108l-100 164l-168 -168q-54 -66 -56 -160zM412 1220q-4 -40 24 -92l92 -168l136 136q30 32 39 58t-3 62q-46 76 -132 84q-146 -6 -156 -80zM766 554l170 -242q96 92 98 194t-106 122 q-104 0 -162 -74z" />
<glyph unicode="'" horiz-adv-x="440" vert-adv-y="752" d="M100 1560q2 126 120 128q118 -2 120 -128q0 -160 -76 -424h-88q-76 264 -76 424z" />
<glyph unicode="(" horiz-adv-x="616" vert-adv-y="1944" d="M80 700q4 516 388 872h80q-260 -404 -268 -872q8 -468 268 -872h-80q-384 356 -388 872z" />
<glyph unicode=")" horiz-adv-x="616" vert-adv-y="1944" d="M68 -172q260 404 268 872q-8 468 -268 872h80q384 -356 388 -872q-4 -516 -388 -872h-80z" />
<glyph unicode="*" horiz-adv-x="1096" vert-adv-y="1176" d="M52 1008l56 56h296l-224 224v80h80l224 -224v296l56 56l56 -56v-296l224 224h80v-80l-224 -224h296l56 -56l-56 -56h-296l224 -224v-80h-80l-224 224v-296l-56 -56l-56 56v296l-224 -224h-80v80l224 224h-296z" />
<glyph unicode="+" vert-adv-y="1140" d="M80 640v120h410v410h120v-410h410v-120h-410v-410h-120v410h-410z" />
<glyph unicode="," horiz-adv-x="732" vert-adv-y="642" d="M144 92q0 32 16 64t48 48t64 16t63 -15t52.5 -51t28 -76t6.5 -72q-8 -148 -150 -222q-14 -6 -24 -6q-12 0 -20 7t-8 18q0 13 18 29q70 57 82 141q-27 -9 -48 -9q-32 0 -64 16t-48 48t-16 64z" />
<glyph unicode="-" horiz-adv-x="912" vert-adv-y="320" d="M80 564v120h752v-120h-752z" />
<glyph unicode="." horiz-adv-x="568" vert-adv-y="400" d="M184 100q0 44 28 72t72 28t72 -28t28 -72t-28 -72t-72 -28t-72 28t-28 72z" />
<glyph unicode="/" horiz-adv-x="1236" vert-adv-y="1952" d="M100 -176l876 1752h160l-876 -1752h-160z" />
<glyph unicode="0" vert-adv-y="1600" d="M56 700q0 188 55 357t174 256t267 87t267 -87t174 -256t55 -357t-55 -357t-174 -256t-267 -87q-152 0 -269 87t-172 256t-55 357zM248 700q0 -138 23 -284t95 -229t186 -83t186 83t95 229t23 284t-23 284t-95 229t-186 83t-186 -83t-95 -229t-23 -284z" />
<glyph unicode="1" vert-adv-y="1600" d="M286 0v52l168 52v936l-168 -84v52l262 392h98v-1296l168 -52v-52h-528z" />
<glyph unicode="2" vert-adv-y="1600" d="M154 0v104q24 182 137 331t299 229q92 44 130 116t38 196q0 70 -16 146t-63 125t-135 49q-76 0 -128 -67t-72 -237l-56 -56h-70l-60 178l64 178l36 -108q44 124 121 170t167 46q146 0 235 -68t119 -159t30 -197q-8 -256 -220 -376q-348 -200 -348 -496h472l64 112h48 v-216h-792z" />
<glyph unicode="3" vert-adv-y="1600" d="M86 444h94q24 -192 126 -266t230 -74q88 0 154 34t100 102t34 152q0 136 -78 216t-268 96v104q172 26 231 93t59 163q0 78 -23 130t-82 77t-127 25q-80 2 -164 -58t-139 -166l-69 44q64 148 168 216t204 68q116 0 213 -37t154 -114t57 -185q0 -96 -57 -179t-183 -121 q142 -38 219 -135t77 -237q0 -136 -72 -229t-176 -128t-232 -35q-166 0 -295 100t-155 344z" />
<glyph unicode="4" vert-adv-y="1600" d="M92 536l664 864h20v-760h104l44 84h52v-188h-200v-432l168 -52v-52h-528v52l168 52v432h-492zM308 640h276v358z" />
<glyph unicode="5" vert-adv-y="1600" d="M88 380h121q15 -130 102 -203t229 -73q88 0 156 50t96 146t28 224q0 102 -26 187t-94 135t-160 50q-162 0 -237 -136h-174l160 640h667v-304h-52l-100 200h-425l-98 -392q105 96 259 96q140 0 256 -70t166 -180t50 -226q0 -174 -70 -299t-179 -175t-223 -50 q-214 0 -325 108t-127 272z" />
<glyph unicode="6" vert-adv-y="1600" d="M100 560q0 220 53 411t170 310t277 119q126 0 199 -45t105 -123l-60 -120h-28q-10 86 -63 135t-153 49q-110 0 -178 -111t-99 -277t-31 -348q32 130 122 193t186 63q136 0 229 -53t132 -142t39 -189q0 -136 -52 -233t-156 -148t-242 -51q-166 0 -265 75t-142 192t-43 293 zM322 318q24 -98 85 -156t143 -58q94 0 153 48t82 124t23 156q0 70 -21 137t-67 105t-120 38q-68 0 -137 -54t-102 -153t-39 -187z" />
<glyph unicode="7" vert-adv-y="1600" d="M88 1132l48 268h796l56 -56l-56 -80l-200 -308q-122 -216 -165 -438t-43 -410l36 -108h-322v52l106 52q-2 214 66 444t206 436l208 312h-556l-84 -164h-96z" />
<glyph unicode="8" vert-adv-y="1600" d="M134 416q4 224 128 326q-88 86 -96 314q32 332 384 344q352 -12 384 -344q-8 -228 -96 -314q124 -102 128 -326q-8 -408 -416 -416q-408 8 -416 416zM326 416q8 -304 224 -312q216 8 224 312q-8 304 -224 312q-216 -8 -224 -312zM326 1056q2 -156 82 -246q62 20 142 22 q80 -2 142 -22q80 90 82 246q-6 234 -224 240q-218 -6 -224 -240z" />
<glyph unicode="9" vert-adv-y="1600" d="M100 968q0 136 52 233t156 148t242 51q166 0 265 -75t142 -192t43 -293q0 -220 -53 -411t-170 -310t-277 -119q-126 0 -199 45t-105 123l60 120h28q10 -86 63 -135t153 -49q110 0 178 111t99 277t31 348q-32 -130 -122 -193t-186 -63q-136 0 -229 53t-132 142t-39 189z M292 968q0 -70 21 -137t67 -105t120 -38q68 0 137 54t102 153t39 187q-24 98 -85 156t-143 58q-94 0 -153 -48t-82 -124t-23 -156z" />
<glyph unicode=":" horiz-adv-x="568" vert-adv-y="824" d="M184 488q0 44 28 72t72 28t72 -28t28 -72t-28 -72t-72 -28t-72 28t-28 72zM184 912q0 44 28 72t72 28t72 -28t28 -72t-28 -72t-72 -28t-72 28t-28 72z" />
<glyph unicode=";" horiz-adv-x="566" vert-adv-y="1154" d="M144 272q0 32 16 64t48 48t64 16t63 -15t52.5 -51t28 -76t6.5 -72q-8 -148 -150 -222q-14 -6 -24 -6q-12 0 -20 7t-8 18q0 13 18 29q70 57 82 141q-27 -9 -48 -9q-32 0 -64 16t-48 48t-16 64zM144 784q0 32 16 64t48 48t64 16t64 -16t48 -48t16 -64t-16 -64t-48 -48 t-64 -16t-64 16t-48 48t-16 64z" />
<glyph unicode="&#x3c;" horiz-adv-x="960" vert-adv-y="1440" d="M80 700l620 620h180l-620 -620l620 -620h-180z" />
<glyph unicode="=" vert-adv-y="660" d="M112 400v144h876v-144h-876zM112 716v144h876v-144h-876z" />
<glyph unicode="&#x3e;" horiz-adv-x="960" vert-adv-y="1440" d="M80 80l620 620l-620 620h180l620 -620l-620 -620h-180z" />
<glyph unicode="?" horiz-adv-x="988" vert-adv-y="1716" d="M80 1164q0 176 123 264t303 88q172 0 292 -96t120 -252q0 -162 -82.5 -268t-233.5 -128v-312l-68 -136q-28 -30 -56 0l-68 136v368q182 34 249 129t67 211q0 106 -60 175t-160 69q-118 0 -194 -42t-85 -115q53 -30 53 -91q0 -44 -28 -72t-72 -28t-72 28t-28 72zM406 100 q0 44 28 72t72 28t72 -28t28 -72t-28 -72t-72 -28t-72 28t-28 72z" />
<glyph unicode="@" horiz-adv-x="1388" vert-adv-y="1600" d="M80 684q0 352 184 534t448 182q284 0 436 -172t152 -420q0 -126 -76 -247t-168 -121q-96 0 -188 104q-96 -104 -220 -104q-136 0 -206 97t-70 241q0 148 90 223t230 75q54 0 140 -28l112 -36v-324q0 -36 27 -76t85 -40q52 0 76 80t24 156q0 212 -108 350t-336 138 q-208 0 -348 -156t-140 -456q0 -252 110 -416t378 -164q192 0 310 78t186 212l100 -50q-60 -136 -208 -240t-388 -104q-340 0 -486 192t-146 492zM516 778q0 -108 34 -157t98 -49q70 0 116 30t68 86v220l-30 30q-50 38 -110 38q-88 0 -132 -56t-44 -142z" />
<glyph unicode="A" horiz-adv-x="1556" vert-adv-y="1600" d="M80 0v52l168 52l496 1296h20l544 -1296l168 -52v-52h-464l104 104l-128 304h-500l-116 -304l104 -104h-396zM534 528h404l-211 503z" />
<glyph unicode="B" horiz-adv-x="1332" vert-adv-y="1600" d="M80 0v52l168 52v1192l-168 52v52h628q144 0 236 -40t140 -128t48 -208q0 -108 -37 -182t-103 -106q66 -15 122.5 -51.5t97 -114.5t40.5 -194q0 -120 -48 -208t-140 -128t-284 -40h-700zM440 104h340q104 0 169 34t88 90t23 148t-23 148t-88 90t-169 34h-340v-544z M440 752h268q108 0 152 35t62 90t18 147t-18 147t-62 90t-152 35h-268v-544z" />
<glyph unicode="C" horiz-adv-x="1332" vert-adv-y="1600" d="M80 700q0 340 164 520t468 180q108 0 192 -26t140 -78l88 88l68 -204v-220h-68q-56 188 -162 262t-258 74q-140 0 -240 -70t-150 -208t-50 -318t50 -318t150 -208t240 -70q164 0 280 64t196 224l64 -64q-64 -160 -196 -244t-344 -84q-304 0 -468 182t-164 518z" />
<glyph unicode="D" horiz-adv-x="1328" vert-adv-y="1600" d="M80 0v52l168 52v1192l-168 52v52h600q146 0 270 -59t206 -205q52 -102 72 -219t20 -217t-20 -217t-72 -219q-82 -146 -206 -205t-270 -59h-600zM440 104h240q76 0 143 35t107 84t52 79q40 84 57 189t17 209t-17 209t-57 189q-12 30 -52 79t-107 84t-143 35h-240v-1192z " />
<glyph unicode="E" horiz-adv-x="1200" vert-adv-y="1600" d="M80 0v52l168 52v1192l-168 52v52h1040v-304h-52l-100 200h-528v-544h420l56 168h52v-440h-52l-56 168h-420v-544h528l100 200h52v-304h-1040z" />
<glyph unicode="F" horiz-adv-x="1200" vert-adv-y="1600" d="M80 0v52l168 52v1192l-168 52v52h1040v-304h-52l-100 200h-528v-544h420l56 168h52v-440h-52l-56 168h-420v-544l168 -52v-52h-528z" />
<glyph unicode="G" horiz-adv-x="1564" vert-adv-y="1600" d="M80 700q0 340 164 520t468 180q108 0 192 -26t140 -78l88 88l68 -204v-220h-68q-56 188 -162 262t-258 74q-140 0 -240 -70t-150 -208t-50 -318t50 -318t150 -208t240 -70h36q148 0 214 52t66 112v196l-76 108h-188v104h720v-104h-188l-76 -108v-196q0 -144 -106 -206 t-366 -62h-36q-304 0 -468 182t-164 518z" />
<glyph unicode="H" horiz-adv-x="1520" vert-adv-y="1600" d="M80 0v52l168 52v1192l-168 52v52h464l-104 -104v-544h640v544l-104 104h464v-52l-168 -52v-1192l168 -52v-52h-464l104 104v544h-640v-544l104 -104h-464z" />
<glyph unicode="I" horiz-adv-x="688" vert-adv-y="1600" d="M80 0v52l168 52v1192l-168 52v52h528v-52l-168 -52v-1192l168 -52v-52h-528z" />
<glyph unicode="J" horiz-adv-x="1448" vert-adv-y="1600" d="M80 288q0 38 15 64t41 41t64 15t64 -15t41 -41t15 -64q0 -46 -22 -75t-34 -33q22 -36 73 -56t115 -20q164 0 224 90t60 278v824h-288l-100 -200h-52v304h1072v-304h-52l-100 200h-288v-824q0 -266 -116 -369t-360 -103q-172 0 -271.5 89t-100.5 199z" />
<glyph unicode="K" horiz-adv-x="1466" vert-adv-y="1600" d="M80 0v52l168 52v1192l-168 52v52h528v-52l-168 -52v-588l596 596l-132 44v52h430v-52l-90 -44l-492 -492l536 -712l98 -48v-52h-440v52l98 48l-404 596l-200 -200v-392l168 -52v-52h-528z" />
<glyph unicode="L" horiz-adv-x="1200" vert-adv-y="1600" d="M80 0v52l168 52v1192l-168 52v52h528v-52l-168 -52v-1192h528l100 200h52v-304h-1040z" />
<glyph unicode="M" horiz-adv-x="1872" vert-adv-y="1600" d="M80 0v52l168 52v1192l-168 52v52h488l368 -1104l368 1104h488v-52l-168 -52v-1192l168 -52v-52h-528v52l168 52v1192l-488 -1296h-16l-488 1296v-1192l168 -52v-52h-528z" />
<glyph unicode="N" horiz-adv-x="1592" vert-adv-y="1600" d="M80 0v52l168 52v1192l-168 52v52h440l632 -1264v1160l-168 52v52h528v-52l-168 -52v-1192l168 -52v-52h-440l-632 1264v-1160l168 -52v-52h-528z" />
<glyph unicode="O" horiz-adv-x="1424" vert-adv-y="1600" d="M80 700q0 340 164 520t468 180t468 -182t164 -518t-164 -518t-468 -182t-468 182t-164 518zM272 700q0 -180 50 -318t150 -208t240 -70t240 70t150 208t50 318t-50 318t-150 208t-240 70t-240 -70t-150 -208t-50 -318z" />
<glyph unicode="P" horiz-adv-x="1212" vert-adv-y="1600" d="M80 0v52l168 52v1192l-168 52v52h628q144 0 236 -40t140 -128t48 -208t-48 -208t-140 -128t-236 -40h-268v-544l168 -52v-52h-528zM440 752h268q108 0 152 35t62 90t18 147t-18 147t-62 90t-152 35h-268v-544z" />
<glyph unicode="Q" horiz-adv-x="1424" vert-adv-y="1988" d="M80 700q0 340 164 520t468 180t468 -182t164 -518q0 -252 -90 -414t-255 -233q31 -189 80 -263t121 -74q78 0 126 25t87 68t55 71q4 7 8.5 11t11.5 4q10 -1 21.5 -17.5t11.5 -26.5l-5 -19q-42 -126 -123 -173t-193 -47q-144 0 -230.5 100.5t-121.5 297.5 q-60 -10 -136 -10q-304 0 -468 182t-164 518zM272 700q0 -156 36 -275t94 -185q56 84 135 126t175 42q116 0 177.5 -62.5t80.5 -157.5q90 72 136 205t46 307q0 180 -50 318t-150 208t-240 70t-240 -70t-150 -208t-50 -318zM520 146q82 -42 192 -42q61 0 113 13 q-33 185 -113 187q-120 -4 -192 -158z" />
<glyph unicode="R" horiz-adv-x="1472" vert-adv-y="1600" d="M80 0v52l168 52v1192l-168 52v52h628q144 0 236 -40t140 -128t48 -208q0 -90 -25 -157t-68 -111t-105 -72l290 -580l168 -52v-52h-476l104 104l-272 544h-308v-544l104 -104h-464zM440 752h268q108 0 152 35t62 90t18 147t-18 147t-62 90t-152 35h-268v-544z" />
<glyph unicode="S" horiz-adv-x="1052" vert-adv-y="1600" d="M80 0v352h60q68 -150 180 -199t220 -49q68 0 128 36t84 94t24 94q0 56 -14 100t-46 84q-80 96 -231 175t-269 149q-52 32 -78 64t-42 80t-16 116t60 152t164 118t188 34q80 0 156 -27t136 -77l28 104h52v-368h-80v52q0 42 -42 100t-118 85t-136 27h-7q-45 0 -95 -25 q-54 -27 -82 -71t-28 -86q0 -26 8 -56t44 -58q48 -36 232 -132t292 -208q76 -72 98 -158t22 -152q0 -86 -56 -172t-158 -132t-218 -46q-132 0 -214 22t-150 66l-44 -88h-52z" />
<glyph unicode="T" horiz-adv-x="1296" vert-adv-y="1600" d="M80 1096v304h1136v-304h-52l-100 200h-320v-1192l168 -52v-52h-528v52l168 52v1192h-320l-100 -200h-52z" />
<glyph unicode="U" horiz-adv-x="1496" vert-adv-y="1600" d="M80 1348v52h464l-104 -104v-884q0 -78 29 -153t104 -115t175 -40t175 40t104 120t29 148v884l-104 104h464v-52l-168 -52v-884q0 -140 -70 -234t-182 -136t-248 -42t-248 42t-182 136t-70 234v884z" />
<glyph unicode="V" horiz-adv-x="1496" vert-adv-y="1600" d="M80 1348v52h484l-144 -104l328 -984l328 984l-144 104h484v-52l-144 -52l-514 -1296h-20l-514 1296z" />
<glyph unicode="W" horiz-adv-x="2100" vert-adv-y="1600" d="M80 1348v52h484l-144 -104l328 -984l215 645l-135 339l-144 52v52h484l-144 -104l328 -984l328 984l-144 104h484v-52l-144 -52l-514 -1296h-20l-292 736l-292 -736h-20l-514 1296z" />
<glyph unicode="X" horiz-adv-x="1544" vert-adv-y="1600" d="M80 0v52l168 52l435 705l-307 487l-168 52v52h432l-104 -104l226 -359l222 359l-104 104h472v-52l-168 -52l-320 -519l424 -673l168 -52v-52h-432l104 104l-344 545l-336 -545l104 -104h-472z" />
<glyph unicode="Y" horiz-adv-x="1344" vert-adv-y="1600" d="M80 1348v52h432l-104 -104l264 -528l264 528l-104 104h432v-52l-168 -52l-328 -656v-536l168 -52v-52h-528v52l168 52v536l-328 656z" />
<glyph unicode="Z" horiz-adv-x="1216" vert-adv-y="1600" d="M80 0v104l832 1192h-680l-100 -200h-52v304h1056v-104l-832 -1192h680l100 200h52v-304h-1056z" />
<glyph unicode="[" horiz-adv-x="700" vert-adv-y="1944" d="M192 -172v1744h468v-104h-276v-1536h276v-104h-468z" />
<glyph unicode="\" horiz-adv-x="1236" vert-adv-y="1952" d="M100 1576h160l876 -1752h-160z" />
<glyph unicode="]" horiz-adv-x="700" vert-adv-y="1944" d="M40 -68h276v1536h-276v104h468v-1744h-468v104z" />
<glyph unicode="^" horiz-adv-x="868" vert-adv-y="552" d="M96 1032l344 344l344 -344l-8 -8l-336 168l-336 -168z" />
<glyph unicode="_" horiz-adv-x="1472" vert-adv-y="344" d="M-12 -200h1496v-144h-1496v144z" />
<glyph unicode="`" horiz-adv-x="752" vert-adv-y="634" d="M208 1364q0 32 33 58t61 26q24 0 43 -16t29 -32l172 -344q4 -10 4 -18q0 -14 -22 -24q-8 0 -18 6l-280 280q-22 34 -22 64z" />
<glyph unicode="a" horiz-adv-x="920" vert-adv-y="1112" d="M80 282q4 144 88 215t204 75q154 -6 218 -92v102q-4 114 -44 168t-130 58q-64 -2 -114 -36t-64 -108h-142q24 102 113 174t207 74q160 -4 258 -75t108 -255v-472l58 -58v-52h-160l-90 46q-54 -44 -188 -46q-168 2 -243 85t-79 197zM220 284q4 -76 49 -126t133 -54 q82 4 133 30t55 88v111q-10 59 -63 95t-155 40q-62 -4 -105 -52t-47 -132z" />
<glyph unicode="b" horiz-adv-x="1216" vert-adv-y="1600" d="M80 0v52l168 52v1188l-56 56h-52v52h300v-612q52 66 118 95t162 29q144 0 243 -72t136 -180t37 -204t-37 -204t-136 -180t-243 -72q-108 0 -178 28t-102 76l-52 -104h-308zM440 248q36 -72 112 -108t168 -36q76 0 129 51t74 134t21 167t-21 167t-74 134t-129 51 q-98 0 -176 -44t-104 -120v-396z" />
<glyph unicode="c" horiz-adv-x="992" vert-adv-y="1112" d="M80 456q0 128 54 238t164 164t238 54q188 0 274 -90t86 -194q0 -38 -15 -64t-41 -41t-64 -15t-64 15t-41 41t-15 64q0 46 22 75t52 38q-26 36 -82 51.5t-112 15.5q-78 0 -141 -42t-93 -124t-30 -186t30 -186t93 -124t141 -42q64 0 126.5 18t117.5 66l80 80l56 -56 l-80 -80q-36 -38 -86.5 -70t-106 -47t-107.5 -15q-128 0 -238 54t-164 164t-54 238z" />
<glyph unicode="d" horiz-adv-x="1216" vert-adv-y="1600" d="M80 456q0 96 37 204t136 180t243 72q96 0 162 -29t118 -95v504l-56 56h-52v52h300v-1296l168 -52v-52h-308l-52 104q-32 -48 -102 -76t-178 -28q-144 0 -243 72t-136 180t-37 204zM272 456q0 -84 21 -167t74 -134t129 -51q92 0 168 36t112 108v396q-26 76 -104 120 t-176 44q-76 0 -129 -51t-74 -134t-21 -167z" />
<glyph unicode="e" horiz-adv-x="976" vert-adv-y="1112" d="M80 484q0 92 45 198.5t159 168t232 61.5q77 0 177.5 -44t149.5 -143t49 -233v-4h-620q0 -148 30.5 -228t85.5 -118t128 -38q64 0 126.5 18t117.5 66l80 80l56 -56l-80 -80q-36 -38 -86.5 -70t-106 -47t-107.5 -15q-56 0 -141 21.5t-141.5 75t-90 121.5t-48.5 142.5 t-15 123.5zM280 592h468q-11 66 -40 116t-84.5 75t-107.5 25t-104.5 -20t-87.5 -74.5t-44 -121.5z" />
<glyph unicode="f" horiz-adv-x="1152" vert-adv-y="1600" d="M80 808v102h280v162q0 164 98 246t286 82q148 0 237.5 -87t90.5 -197q0 -38 -15 -64t-41 -41t-64 -15t-64 15t-41 41t-15 64q0 46 22 75t52 38q-21 34 -65.5 50.5t-96.5 16.5q-100 0 -146 -61t-46 -163v-162h280v-102h-280v-704l168 -52v-52h-528v52l168 52v704h-280z " />
<glyph unicode="g" horiz-adv-x="1224" vert-adv-y="1692" d="M80 -260q0 68 23 134t72 112t138 70q-45 24 -65 60t-24 92q0 56 27 95t77 57q-52 52 -80 110t-32 154q0 88 50 155t132 100t198 33q84 0 158 -22t134 -74l54 -54q67 28 100 63.5t50 86.5h52v-52q0 -45 -12 -82.5t-37 -73.5t-71 -72q24 -60 28 -152q0 -84 -40 -144 t-112 -98t-168 -38q-75 2 -141.5 19t-129.5 57q-39 -10 -58 -33t-19 -51q0 -26 19 -53t51 -35l126 -16q148 -8 244 -32q124 -34 184 -74t98 -100t38 -142q-9 -152 -153.5 -233t-378.5 -87q-160 0 -280 42t-186 122t-66 156zM272 -260q0 -32 40 -91t126 -92t174 -33 q136 0 218 32t126 84t44 100q0 40 -21 78t-56 64t-84 46q-122 52 -259 56h-112q-62 -2 -111 -44t-67 -95t-18 -105zM408 624q0 -68 20 -122t55 -94q53 -52 119 -78t130 -26q56 0 96.5 22t60 64t19.5 90q0 56 -17 107t-53 96t-66 66q-32 21 -55 31t-54 17t-67 7 q-44 0 -93 -22t-72 -74t-23 -84z" />
<glyph unicode="h" horiz-adv-x="1332" vert-adv-y="1600" d="M80 0v52l168 52v1192l-52 52h-52v52h296v-628q34 62 107 101t165 39q112 0 196.5 -28t130 -108t45.5 -176v-496l168 -52v-52h-464l104 104v496q-4 100 -48 154t-132 54q-84 0 -148 -31t-124 -141v-532l104 -104h-464z" />
<glyph unicode="i" horiz-adv-x="688" vert-adv-y="1458" d="M80 -2v52l168 52v692l-64 64v52h186l70 -36v-772l168 -52v-52h-528zM244 1156q0 44 28 72t72 28t72 -28t28 -72t-28 -72t-72 -28t-72 28t-28 72z" />
<glyph unicode="j" horiz-adv-x="612" vert-adv-y="1944" d="M-72 -204q0 38 15 64t41 41t64 15t64 -15t41 -41t15 -64q0 -46 -22 -75t-52 -38l-14 -5q22 -34 61 -48t79 -14t70 47t30 177v954l-64 64v52h186l70 -36v-1034q0 -176 -78 -252t-214 -76q-128 0 -210 76t-82 208zM316 1156q0 44 28 72t72 28t72 -28t28 -72t-28 -72 t-72 -28t-72 28t-28 72z" />
<glyph unicode="k" horiz-adv-x="1328" vert-adv-y="1600" d="M80 0v52l168 52v1184l-60 60h-52v52h304v-810l394 264l-56 56h422v-50l-162 -28l-336 -226l378 -502l168 -52v-52h-448l104 104l-322 422l-142 -96v-326l104 -104h-464z" />
<glyph unicode="l" horiz-adv-x="688" vert-adv-y="1600" d="M80 0v52l168 52v1184l-60 60h-52v52h304v-1296l168 -52v-52h-528z" />
<glyph unicode="m" horiz-adv-x="1976" vert-adv-y="1112" d="M80 0v52l168 52v704l-52 52h-52v50h296v-138q34 62 107 101t165 39q84 0 154 -16t116 -52t79 -117q10 22 23 45q34 62 107 101t165 39q112 0 196.5 -28t130 -108t45.5 -176v-496l168 -52v-52h-464l104 104v496q-4 100 -48 154t-132 54q-84 0 -148 -31t-122 -138l-3 -6 l1 -33v-496l104 -104h-400l104 104v496q-4 100 -48 154t-132 54q-84 0 -148 -31t-124 -141v-532l104 -104h-464z" />
<glyph unicode="n" horiz-adv-x="1332" vert-adv-y="1112" d="M80 0v52l168 52v704l-52 52h-52v50h296v-138q34 62 107 101t165 39q112 0 196.5 -28t130 -108t45.5 -176v-496l168 -52v-52h-464l104 104v496q-4 100 -48 154t-132 54q-84 0 -148 -31t-124 -141v-532l104 -104h-464z" />
<glyph unicode="o" horiz-adv-x="1072" vert-adv-y="1112" d="M80 456q0 128 54 238t164 164t238 54t238 -54t164 -164t54 -238t-54 -238t-164 -164t-238 -54t-238 54t-164 164t-54 238zM272 456q0 -104 30 -186t93 -124t141 -42t141 42t93 124t30 186t-30 186t-93 124t-141 42t-141 -42t-93 -124t-30 -186z" />
<glyph unicode="p" horiz-adv-x="1216" vert-adv-y="1600" d="M80 -436l168 56v1188l-168 52v50h298l62 -122q52 66 118 95t162 29q144 0 243 -72t136 -180t37 -204t-37 -204t-136 -180t-243 -72q-108 0 -178 28t-102 76v-484l168 -56v-52h-528v52zM440 248q36 -72 112 -108t168 -36q76 0 129 51t74 134t21 167t-21 167t-74 134 t-129 51q-98 0 -176 -44t-104 -120v-396z" />
<glyph unicode="q" horiz-adv-x="1048" vert-adv-y="1600" d="M80 456q0 96 37 204t136 180t243 72q96 0 162 -29t118 -95v48l74 74h118v-1290l168 -56v-52h-528v52l168 56v484q-32 -48 -102 -76t-178 -28q-144 0 -243 72t-136 180t-37 204zM272 456q0 -84 21 -167t74 -134t129 -51q92 0 168 36t112 108v396q-26 76 -104 120t-176 44 q-76 0 -129 -51t-74 -134t-21 -167z" />
<glyph unicode="r" horiz-adv-x="1120" vert-adv-y="1112" d="M80 0v52l168 56v700l-168 52v50h286l74 -74v-54q74 44 185.5 87t226.5 43q56 0 103.5 -17.5t66 -46t18.5 -56.5q0 -44 -20 -76t-62 -50t-96 -18q-38 0 -72.5 21t-52 51.5t-29.5 77.5q-58 0 -125 -31t-143 -82v-577l168 -56v-52h-528z" />
<glyph unicode="s" horiz-adv-x="896" vert-adv-y="1112" d="M80 44v256h80v-64q8 -58 82 -95t170 -37q80 0 124 16t66 44t22 56q0 24 -5 43t-23 41q-44 56 -146 102t-223 86q-85 28 -116 74t-31 106q0 96 48 149t130 72t154 19q80 0 138.5 -19t89.5 -53l36 72l44 -44v-196h-80v58q-36 42 -102 60t-126 18q-40 0 -88 -7t-78 -32 t-30 -45q1 -38 23 -58q28 -30 188.5 -82t284.5 -148q102 -87 104 -216q-4 -88 -58 -138t-144 -66t-202 -16q-88 0 -147 20t-105 52l-36 -72z" />
<glyph unicode="t" horiz-adv-x="980" vert-adv-y="1458" d="M80 808v102h280v232l-64 64v52h186l70 -36v-312h348v-102h-348v-548q0 -68 30 -112t92 -44q48 0 92 32t76 78q4 9 10 13.5t13 4.5q11 0 26 -11q14 -16 14 -37q-1 -10 -5 -28q-34 -76 -94 -116t-132 -40q-178 0 -246 70t-68 190v548h-280z" />
<glyph unicode="u" horiz-adv-x="1204" vert-adv-y="1110" d="M80 860v50h398l-102 -102v-496q4 -100 48 -154t132 -54q84 0 148 31t124 141v532l-102 102h398v-50h-52l-52 -52v-704l52 -52h52v-52h-296v140q-34 -62 -107 -101t-165 -39q-112 0 -196.5 28t-130 108t-45.5 176v496l-52 52h-52z" />
<glyph unicode="v" horiz-adv-x="1216" vert-adv-y="1110" d="M80 860v50h384l-102 -102l246 -648l246 648l-102 102h384v-50h-52l-52 -52l-404 -808h-40l-404 808l-52 52h-52z" />
<glyph unicode="w" horiz-adv-x="1684" vert-adv-y="1110" d="M80 860v50h384l-102 -102l246 -648l159 419l-52 104h254l-52 -104l159 -419l246 648l-102 102h384v-50h-52l-52 -52l-404 -808h-40l-214 428l-214 -428h-40l-404 808l-52 52h-52z" />
<glyph unicode="x" horiz-adv-x="1208" vert-adv-y="1110" d="M80 0v52h52l56 56l316 348l-316 348l-56 56h-52v50h398l-102 -102l228 -252l228 252l-102 102h398v-50h-52l-56 -56l-316 -348l316 -348l56 -56h52v-52h-400l104 104l-228 252l-228 -252l104 -104h-400z" />
<glyph unicode="y" horiz-adv-x="1384" vert-adv-y="1598" d="M80 860v50h446l-102 -102l320 -640l272 640l-102 102h390v-50l-168 -52l-460 -1080q-62 -138 -127 -177t-149 -39q-100 0 -158 36t-90 102t-32 146q0 38 15 64t41 41t64 15t64 -15t41 -41t15 -64q0 -46 -22 -75t-52 -38q4 -31 31 -49t83 -18q76 0 108 37t48 75l108 252 l-416 828z" />
<glyph unicode="z" horiz-adv-x="932" vert-adv-y="1110" d="M80 0l488 808h-358l-78 -156h-52v258h772l-488 -806h358l78 156h52v-260h-772z" />
<glyph unicode="{" horiz-adv-x="676" vert-adv-y="1944" d="M140 700l88 44q104 32 152 104q8 96 -58 182t-66 210q36 284 292 332h128v-140h-108q-168 0 -188 -192q-4 -124 96 -226t88 -166q-4 -48 -40 -80l-84 -68l84 -68q36 -32 40 -80q12 -64 -88 -166t-96 -226q20 -192 188 -192h108v-140h-128q-256 48 -292 332q0 124 66 210 t58 182q-48 72 -152 104z" />
<glyph unicode="|" horiz-adv-x="472" vert-adv-y="1600" d="M164 0v1400h144v-1400h-144z" />
<glyph unicode="}" horiz-adv-x="676" vert-adv-y="1944" d="M0 -32h108q168 0 188 192q4 124 -96 226t-88 166q4 48 40 80l84 68l-84 68q-36 32 -40 80q-12 64 88 166t96 226q-20 192 -188 192h-108v140h128q256 -48 292 -332q0 -124 -66 -210t-58 -182q48 -72 152 -104l88 -44l-88 -44q-104 -32 -152 -104q-8 -96 58 -182t66 -210 q-36 -284 -292 -332h-128v140z" />
<glyph unicode="~" horiz-adv-x="904" vert-adv-y="480" d="M80 1024q8 252 216 256q80 0 156 -44t156 -44q128 0 188 112h28q-8 -252 -216 -256q-80 0 -156 44t-156 44q-128 0 -188 -112h-28z" />
<glyph unicode="&#xa1;" horiz-adv-x="624" vert-adv-y="1748" d="M150 96v318q2 282 122 658h80q120 -376 122 -658v-318q-16 -206 -162 -244q-146 38 -162 244zM212 1300q6 94 100 100q94 -6 100 -100q-6 -94 -100 -100q-94 6 -100 100z" />
<glyph unicode="&#xa2;" horiz-adv-x="972" vert-adv-y="1944" d="M80 484q0 92 45 198.5t159 168t232 61.5h17l151 450h104l-154 -461q115 -22 178.5 -103.5t63.5 -169.5q0 -38 -15 -64t-41 -41t-64 -15t-64 15t-41 41t-15 64q0 46 22 75t52 38q-32 51 -109 62l-220 -656q59 -43 135 -43q64 0 126.5 18t117.5 66l80 80l56 -56l-80 -80 q-36 -38 -86.5 -70t-106 -47t-107.5 -15q-71 0 -173 32l-139 -414h-104l154 461q-72 60 -108 133.5t-51 148t-15 123.5zM272 488q0 -160 37 -245l189 564q-61 -3 -108.5 -29t-82.5 -96t-35 -194z" />
<glyph unicode="&#xa3;" horiz-adv-x="1420" vert-adv-y="1600" d="M80 300q0 64 22 112t62 74t76 30q48 0 132 -26t164 -74q8 44 12 84q0 64 -34 168t-34 140h-252v104h252v96q0 72 34 172t120 160t150 60q68 0 138 -28t112 -94t42 -106q0 -16 -6 -38.5t-13 -36.5l-17 -33h-52v52q0 60 -27 103t-70 60t-71 17q-46 0 -89 -48t-51 -120 t-8 -120v-96h252v-104h-252q4 -28 26 -114t22 -130q0 -40 -12 -90t-40 -126q92 -56 188 -140q84 -68 146 -86t106 -18q48 0 92 32t76 78q4 9 10 13.5t13 4.5q11 0 26 -11q14 -16 14 -37q-1 -10 -5 -28q-34 -76 -94 -116t-132 -40t-146 30t-174 98q-108 80 -168 108 q-52 -136 -116 -186t-132 -50q-92 0 -154 38t-100 114t-38 148zM272 260q0 -28 8 -68t26 -64t34 -24q40 0 68 24t54 78t38 86q-60 30 -102 41t-58 11q-18 -2 -43 -25t-25 -59z" />
<glyph unicode="&#xa4;" horiz-adv-x="1440" vert-adv-y="1480" d="M80 168l159 159q-61 87 -90 182t-29 191t29 191t90 182l-159 159l108 108l159 -159q87 61 182 90t191 29t191 -29t182 -90l159 159l108 -108l-159 -159q61 -87 90 -182t29 -191t-29 -191t-90 -182l159 -159l-108 -108l-159 159q-87 -61 -182 -90t-191 -29t-191 29 t-182 90l-159 -159zM312 700q0 -142 56 -259t153 -177t199 -60t199 60t153 177t56 259t-56 259t-153 177t-199 60t-199 -60t-153 -177t-56 -259z" />
<glyph unicode="&#xa5;" horiz-adv-x="1236" vert-adv-y="1600" d="M80 1348v52h442l-104 -104l224 -348l224 348l-104 104h442v-52l-168 -52l-314 -488h420l-2 -120h-420l2 -160h420l-2 -120h-420l2 -304l168 -52v-52h-496v52l168 52l-2 304h-420l2 120h420l-2 160h-420l2 120h420l-314 488z" />
<glyph unicode="&#xa6;" horiz-adv-x="440" vert-adv-y="1600" d="M124 0v620h192v-620h-192zM124 780v620h192v-620h-192z" />
<glyph unicode="&#xa7;" horiz-adv-x="964" vert-adv-y="1907" d="M100 139h51q58 -127 154 -168.5t188 -41.5q59 0 110.5 30.5t72 79.5t20.5 80q0 47 -12 84.5t-40 71.5q-68 81 -197.5 148.5t-230.5 126.5q-45 27 -67 54t-35.5 68t-13.5 99q0 45 30 97t74.5 87t119.5 55q-56 29 -108 60q-45 27 -67 54t-35.5 68t-13.5 99q0 57 51 128.5 t140 100t161 28.5q69 0 134 -22.5t116 -65.5l24 88h45v-312h-69v44q0 36 -35.5 85t-101 72t-116.5 23q-41 2 -87.5 -21t-70.5 -60.5t-24 -72.5q0 -22 7 -47.5t38 -49.5q41 -30 198.5 -111.5t250.5 -176.5q65 -62 84 -134.5t19 -128.5q0 -62 -34.5 -124.5t-96.5 -104.5 l28 -28q65 -62 84 -134.5t19 -128.5q0 -73 -48 -146t-135.5 -112t-187.5 -39q-113 0 -183 18.5t-128 55.5l-38 -74h-44v298zM267 786q0 -22 7 -47.5t38 -49.5q44 -31 151.5 -86.5t172.5 -98.5q33 32 46.5 70.5t13.5 64.5q0 56 -16 95.5t-36 60.5q-54 68 -188 145h-7 q-41 2 -87.5 -21t-70.5 -60.5t-24 -72.5z" />
<glyph unicode="&#xa8;" horiz-adv-x="864" vert-adv-y="400" d="M132 1156q0 44 28 72t72 28t72 -28t28 -72t-28 -72t-72 -28t-72 28t-28 72zM532 1156q0 44 28 72t72 28t72 -28t28 -72t-28 -72t-72 -28t-72 28t-28 72z" />
<glyph unicode="&#xa9;" horiz-adv-x="1720" vert-adv-y="1720" d="M100 700q0 208 100 384t276 276t384 100t384 -100t276 -276t100 -384t-100 -384t-276 -276t-384 -100t-384 100t-276 276t-100 384zM220 700q0 -152 82 -314t244 -244t314 -82t314 82t244 244t82 314t-82 314t-244 244t-314 82t-314 -82t-244 -244t-82 -314zM432 700 q0 148 56 254t154 154t222 48q56 0 103 -16t91 -54l58 58l44 -130v-146h-48q-16 54 -55 96t-89 64t-104 24q-92 0 -154 -40t-94 -119t-32 -193q0 -112 32 -196t91 -120t133 -36q100 0 168 34t140 142l41 -41q-17 -67 -68 -124t-125 -86t-156 -29q-132 0 -222 62t-138 158 t-48 236z" />
<glyph unicode="&#xaa;" horiz-adv-x="728" vert-adv-y="900" d="M80 700v104h568v-104h-568zM124 1058q0 78 53.5 116.5t129.5 41.5q98 -4 138 -50v55q-3 62 -28 91.5t-82 31.5q-41 -1 -72.5 -19.5t-41.5 -58.5h-89q14 55 71 94t132 40q101 -2 163 -40.5t69 -138.5v-257l37 -31v-29h-102l-57 26q-35 -24 -119 -26q-107 2 -154.5 47 t-47.5 107zM210 1059q3 -41 31.5 -68.5t84.5 -29.5q52 2 84 16.5t35 47.5v61q-6 32 -40 51.5t-98 21.5q-40 -2 -67 -28t-30 -72z" />
<glyph unicode="&#xab;" horiz-adv-x="944" vert-adv-y="872" d="M80 516l336 336h104l-248 -336l248 -336h-104zM424 516l336 336h104l-248 -336l248 -336h-104z" />
<glyph unicode="&#xac;" horiz-adv-x="1416" vert-adv-y="920" d="M100 1024v104h1216v-720h-192v616h-1024z" />
<glyph unicode="&#xad;" horiz-adv-x="912" vert-adv-y="320" d="M80 640v120h752v-120h-752z" />
<glyph unicode="&#xae;" horiz-adv-x="1720" vert-adv-y="1720" d="M100 700q0 208 100 384t276 276t384 100t384 -100t276 -276t100 -384t-100 -384t-276 -276t-384 -100t-384 100t-276 276t-100 384zM220 700q0 -152 82 -314t244 -244t314 -82t314 82t244 244t82 314t-82 314t-244 244t-314 82t-314 -82t-244 -244t-82 -314zM456 244v52 l128 52v704l-128 52v52h428q95 0 162.5 -37t94.5 -96t27 -111q0 -64 -40 -118t-104 -82l184 -364l84 -52v-52h-292l52 52l-188 376h-120v-324l128 -52v-52h-416zM744 772h136q36 0 68 18t46 53t14 69q0 36 -14 68t-46 52t-68 20h-136v-280z" />
<glyph unicode="&#xaf;" horiz-adv-x="856" vert-adv-y="320" d="M80 1096v120h696v-120h-696z" />
<glyph unicode="&#xb0;" horiz-adv-x="840" vert-adv-y="600" d="M220 1236q0 52 24 102t74 74t102 24t102 -24t74 -74t24 -102t-24 -102t-74 -74t-102 -24t-102 24t-74 74t-24 102zM300 1236q0 -38 15 -64t41 -41t64 -15t64 15t41 41t15 64t-15 64t-41 41t-64 15t-64 -15t-41 -41t-15 -64z" />
<glyph unicode="&#xb1;" vert-adv-y="1418" d="M80 764v120h410v410h120v-410h410v-120h-410v-410h-120v410h-410zM172 76v120h752v-120h-752z" />
<glyph unicode="&#xb2;" horiz-adv-x="856" vert-adv-y="1112" d="M120 800v68q37 209 326 362q137 66 143 206q-6 189 -165 196q-161 -3 -186 -222h-62l-44 131l38 111l30 -80q44 135 224 140q280 -5 299 -276q-6 -166 -171 -245q-271 -130 -271 -323h379l38 73h38v-141h-616z" />
<glyph unicode="&#xb3;" horiz-adv-x="840" vert-adv-y="1113" d="M108 1093h71q35 -116 93 -163t138 -47q52 0 93 28t59.5 70t18.5 78q0 86 -50.5 139.5t-157.5 53.5v82q95 7 131.5 47.5t36.5 114.5q0 32 -13.5 62.5t-44 51t-73.5 20.5q-63 0 -105.5 -34t-83.5 -104l-56 35q42 96 110.5 141t134.5 45q75 0 138.5 -25t101.5 -75.5 t38 -116.5q0 -68 -38 -120t-120 -77q95 -23 146 -88.5t51 -151.5q0 -92 -40.5 -150t-113 -83.5t-163.5 -25.5q-110 0 -194.5 67t-107.5 226z" />
<glyph unicode="&#xb4;" horiz-adv-x="752" vert-adv-y="634" d="M176 1038q0 8 4 18l172 344q10 16 29 32t43 16q28 0 61 -26t33 -58q0 -30 -22 -64l-280 -280q-10 -6 -18 -6q-22 10 -22 24z" />
<glyph unicode="&#xb5;" horiz-adv-x="1620" vert-adv-y="1712" d="M80 -600l504 1512h160l-184 -552q14 -252 224 -256q128 6 180 112l232 696h160l-218 -654q6 -150 170 -154q108 2 152 160l80 -80q-50 -176 -246 -184q-176 2 -208 130q-36 -66 -110 -96t-208 -34q-128 6 -189 47t-83 121l-256 -768h-160z" />
<glyph unicode="&#xb6;" horiz-adv-x="1320" vert-adv-y="1992" d="M80 1120q0 204 122 294t322 90h580l136 -68v-96l-188 60h-60v-1688h-192v1688h-144v-1688h-192v956l-132 66q-130 63 -191 160.5t-61 225.5zM272 1120q0 -96 31 -173t89 -107l72 -36v580q-76 -16 -116 -52t-58 -90t-18 -122z" />
<glyph unicode="&#xb7;" horiz-adv-x="680" vert-adv-y="400" d="M240 700q0 44 28 72t72 28t72 -28t28 -72t-28 -72t-72 -28t-72 28t-28 72z" />
<glyph unicode="&#xb8;" horiz-adv-x="792" vert-adv-y="820" d="M80 -380l48 48q28 -70 68 -105t85 -47t107 -12q60 0 94 12t56 42t22 82q0 40 -18 70t-58 46t-92 16h-148l124 248h128l-72 -144q72 0 136 -28t98 -89t34 -119q0 -80 -36 -136t-104 -80t-164 -24t-188 58t-120 162z" />
<glyph unicode="&#xb9;" horiz-adv-x="688" vert-adv-y="1113" d="M120 800v42l141 41v652l-141 -67v54l201 191h101v-830l142 -41v-42h-444z" />
<glyph unicode="&#xba;" horiz-adv-x="728" vert-adv-y="900" d="M80 700v104h568v-104h-568zM108 1152q6 110 76 176t180 72q110 -6 180 -72t76 -176q-6 -110 -76 -176t-180 -72q-110 6 -180 72t-76 176zM228 1152q4 -84 45 -124t91 -44q50 4 91 44t45 124q-4 84 -45 124t-91 44q-50 -4 -91 -44t-45 -124z" />
<glyph unicode="&#xbb;" horiz-adv-x="944" vert-adv-y="872" d="M80 180l248 336l-248 336h104l336 -336l-336 -336h-104zM424 180l248 336l-248 336h104l336 -336l-336 -336h-104z" />
<glyph unicode="&#xbc;" horiz-adv-x="1456" vert-adv-y="2217" d="M120 800v42l141 41v652l-141 -67v54l201 191h101v-830l142 -41v-42h-444zM240 -184l876 1752h160l-876 -1752h-160zM664 46l497 562v-489h112l42 73h16v-146h-170v-260l124 -42v-48h-377v48l124 42v260h-368zM824 119h208v232z" />
<glyph unicode="&#xbd;" horiz-adv-x="1588" vert-adv-y="2217" d="M120 800v42l141 41v652l-141 -67v54l201 191h101v-830l142 -41v-42h-444zM240 -184l876 1752h160l-876 -1752h-160zM844 -236q37 209 326 362q137 66 143 206q-6 189 -165 196q-161 -3 -186 -222h-62l-44 131l38 111l30 -80q44 135 224 140q280 -5 299 -276 q-6 -166 -171 -245q-271 -130 -271 -323h379l38 73h38v-141h-616v68z" />
<glyph unicode="&#xbe;" horiz-adv-x="1616" vert-adv-y="2217" d="M108 1093h71q35 -116 93 -163t138 -47q52 0 93 28t59.5 70t18.5 78q0 86 -50.5 139.5t-157.5 53.5v82q95 7 131.5 47.5t36.5 114.5q0 32 -13.5 62.5t-44 51t-73.5 20.5q-63 0 -105.5 -34t-83.5 -104l-56 35q42 96 110.5 141t134.5 45q75 0 138.5 -25t101.5 -75.5 t38 -116.5q0 -68 -38 -120t-120 -77q95 -23 146 -88.5t51 -151.5q0 -92 -40.5 -150t-113 -83.5t-163.5 -25.5q-110 0 -194.5 67t-107.5 226zM432 -184l876 1752h160l-876 -1752h-160zM852 46l497 562v-489h112l42 73h16v-146h-170v-260l124 -42v-48h-377v48l124 42v260h-368 zM1012 119h208v232z" />
<glyph unicode="&#xbf;" horiz-adv-x="988" vert-adv-y="1716" d="M80 232q14 352 316 396v312l68 136q28 30 56 0l68 -136v-368q-306 -44 -316 -340q10 -234 220 -244q248 8 280 160q-50 26 -54 88q6 94 100 100q94 -6 100 -100q-6 -332 -426 -352q-398 20 -412 348zM392 1304q6 90 100 96q94 -6 100 -100q-6 -94 -100 -100 q-94 6 -100 104z" />
<glyph unicode="&#xc0;" horiz-adv-x="1556" vert-adv-y="2128" d="M80 0v52l168 52l496 1296h20l544 -1296l168 -52v-52h-464l104 104l-128 304h-500l-116 -304l104 -104h-396zM420 1844q0 32 33 58t61 26q24 0 43 -16t29 -32l172 -344q4 -10 4 -18q0 -14 -22 -24q-8 0 -18 6l-280 280q-22 34 -22 64zM534 528h404l-211 503z" />
<glyph unicode="&#xc1;" horiz-adv-x="1556" vert-adv-y="2128" d="M80 0v52l168 52l496 1296h20l544 -1296l168 -52v-52h-464l104 104l-128 304h-500l-116 -304l104 -104h-396zM534 528h404l-211 503zM740 1518q0 8 4 18l172 344q10 16 29 32t43 16q28 0 61 -26t33 -58q0 -30 -22 -64l-280 -280q-10 -6 -18 -6q-22 10 -22 24z" />
<glyph unicode="&#xc2;" horiz-adv-x="1556" vert-adv-y="2092" d="M80 0v52l168 52l496 1296h20l544 -1296l168 -52v-52h-464l104 104l-128 304h-500l-116 -304l104 -104h-396zM408 1548l344 344l344 -344l-8 -8l-336 168l-336 -168zM534 528h404l-211 503z" />
<glyph unicode="&#xc3;" horiz-adv-x="1556" vert-adv-y="2000" d="M80 0v52l168 52l496 1296h20l544 -1296l168 -52v-52h-464l104 104l-128 304h-500l-116 -304l104 -104h-396zM340 1544q8 64 25 101t37 61t51 48q45 28 76.5 35.5t58.5 7.5q39 0 83.5 -10.5t86.5 -28.5t78 -38q48 -24 82 -32t58 -8q28 0 58.5 9t61.5 33t64 70l4 8 q-5 -47 -11.5 -75t-21.5 -64t-45 -69q-40 -36 -77 -46t-73 -10q-30 0 -56 4t-58 17t-62 29q-36 20 -75 36t-74.5 23t-70.5 7q-60 0 -103 -23q-56 -28 -97 -85zM534 528h404l-211 503z" />
<glyph unicode="&#xc4;" horiz-adv-x="1556" vert-adv-y="1940" d="M80 0v52l168 52l496 1296h20l544 -1296l168 -52v-52h-464l104 104l-128 304h-500l-116 -304l104 -104h-396zM452 1640q0 44 28 72t72 28t72 -28t28 -72t-28 -72t-72 -28t-72 28t-28 72zM534 528h404l-211 503zM852 1640q0 44 28 72t72 28t72 -28t28 -72t-28 -72t-72 -28 t-72 28t-28 72z" />
<glyph unicode="&#xc5;" horiz-adv-x="1556" vert-adv-y="2180" d="M80 0v52l168 52l496 1296h20l544 -1296l168 -52v-52h-464l104 104l-128 304h-500l-116 -304l104 -104h-396zM528 1760q0 58 26 113t81 81t113 26t113 -26t81 -81t26 -113t-26 -112.5t-81 -81t-113 -26.5t-113 26t-81 81t-26 113zM534 528h404l-211 503zM608 1760 q0 -36 17 -71t52 -52t71 -17t71 17t52 52t17 71t-17 71t-52 52t-71 17t-71 -17t-52 -52t-17 -71z" />
<glyph unicode="&#xc6;" horiz-adv-x="1912" vert-adv-y="1600" d="M80 0v52l156 52l648 1296h948v-304h-52l-100 200h-528v-544h420l56 168h52v-440h-52l-56 168h-420v-544h528l100 200h52v-304h-1040v52l168 52v424h-344l-212 -424l52 -104h-376zM668 632h292v585z" />
<glyph unicode="&#xc7;" horiz-adv-x="1332" vert-adv-y="2200" d="M80 700q0 340 164 520t468 180q108 0 192 -26t140 -78l88 88l68 -204v-220h-68q-56 188 -162 262t-258 74q-140 0 -240 -70t-150 -208t-50 -318t50 -318t150 -208t240 -70q164 0 280 64t196 224l64 -64q-41 -99 -100.5 -164t-140.5 -105.5t-210 -54.5l-55 -164 q66 -5 123.5 -32.5t84 -79t26.5 -108.5q0 -66 -42 -119t-126 -77t-164 -24q-60 0 -134 17t-122 58t-64 109q0 20 20 28l29 -24q52 -39 95 -54.5t93.5 -22.5t82.5 -7q42 0 79 12t56 39t19 65q0 48 -22 84t-71.5 56.5t-126.5 23.5l74 218q-192 10 -324 102t-192 246t-60 350z " />
<glyph unicode="&#xc8;" horiz-adv-x="1200" vert-adv-y="2128" d="M80 0v52l168 52v1192l-168 52v52h1040v-304h-52l-100 200h-528v-544h420l56 168h52v-440h-52l-56 168h-420v-544h528l100 200h52v-304h-1040zM352 1844q0 32 33 58t61 26q24 0 43 -16t29 -32l172 -344q4 -10 4 -18q0 -14 -22 -24q-8 0 -18 6l-280 280q-22 34 -22 64z" />
<glyph unicode="&#xc9;" horiz-adv-x="1200" vert-adv-y="2128" d="M80 0v52l168 52v1192l-168 52v52h1040v-304h-52l-100 200h-528v-544h420l56 168h52v-440h-52l-56 168h-420v-544h528l100 200h52v-304h-1040zM620 1518q0 8 4 18l172 344q10 16 29 32t43 16q28 0 61 -26t33 -58q0 -30 -22 -64l-280 -280q-10 -6 -18 -6q-22 10 -22 24z " />
<glyph unicode="&#xca;" horiz-adv-x="1200" vert-adv-y="2092" d="M80 0v52l168 52v1192l-168 52v52h1040v-304h-52l-100 200h-528v-544h420l56 168h52v-440h-52l-56 168h-420v-544h528l100 200h52v-304h-1040zM256 1548l344 344l344 -344l-8 -8l-336 168l-336 -168z" />
<glyph unicode="&#xcb;" horiz-adv-x="1200" vert-adv-y="1940" d="M80 0v52l168 52v1192l-168 52v52h1040v-304h-52l-100 200h-528v-544h420l56 168h52v-440h-52l-56 168h-420v-544h528l100 200h52v-304h-1040zM300 1640q0 44 28 72t72 28t72 -28t28 -72t-28 -72t-72 -28t-72 28t-28 72zM700 1640q0 44 28 72t72 28t72 -28t28 -72t-28 -72 t-72 -28t-72 28t-28 72z" />
<glyph unicode="&#xcc;" horiz-adv-x="688" vert-adv-y="2128" d="M40 1844q0 32 33 58t61 26q24 0 43 -16t29 -32l172 -344q4 -10 4 -18q0 -14 -22 -24q-8 0 -18 6l-280 280q-22 34 -22 64zM80 0v52l168 52v1192l-168 52v52h528v-52l-168 -52v-1192l168 -52v-52h-528z" />
<glyph unicode="&#xcd;" horiz-adv-x="688" vert-adv-y="2128" d="M80 0v52l168 52v1192l-168 52v52h528v-52l-168 -52v-1192l168 -52v-52h-528zM312 1518q0 8 4 18l172 344q10 16 29 32t43 16q28 0 61 -26t33 -58q0 -30 -22 -64l-280 -280q-10 -6 -18 -6q-22 10 -22 24z" />
<glyph unicode="&#xce;" horiz-adv-x="688" vert-adv-y="2092" d="M0 1548l344 344l344 -344l-8 -8l-336 168l-336 -168zM80 0v52l168 52v1192l-168 52v52h528v-52l-168 -52v-1192l168 -52v-52h-528z" />
<glyph unicode="&#xcf;" horiz-adv-x="688" vert-adv-y="1940" d="M44 1640q0 44 28 72t72 28t72 -28t28 -72t-28 -72t-72 -28t-72 28t-28 72zM80 0v52l168 52v1192l-168 52v52h528v-52l-168 -52v-1192l168 -52v-52h-528zM444 1640q0 44 28 72t72 28t72 -28t28 -72t-28 -72t-72 -28t-72 28t-28 72z" />
<glyph unicode="&#xd0;" horiz-adv-x="1452" vert-adv-y="1600" d="M80 648v272h52l52 -168h188v544l-168 52v52h600q146 0 270 -59t206 -205q52 -102 72 -219t20 -217t-20 -217t-72 -219q-82 -146 -206 -205t-270 -59h-600v52l168 52v544h-292zM564 104h240q76 0 143 35t107 84t52 79q40 84 57 189t17 209t-17 209t-57 189q-12 30 -52 79 t-107 84t-143 35h-240v-544h292v-272h-52l-52 168h-188v-544z" />
<glyph unicode="&#xd1;" horiz-adv-x="1592" vert-adv-y="2000" d="M80 0v52l168 52v1192l-168 52v52h440l632 -1264v1160l-168 52v52h528v-52l-168 -52v-1192l168 -52v-52h-440l-632 1264v-1160l168 -52v-52h-528zM368 1544q8 64 25 101t37 61t51 48q45 28 76.5 35.5t58.5 7.5q39 0 83.5 -10.5t86.5 -28.5t78 -38q48 -24 82 -32t58 -8 q28 0 58.5 9t61.5 33t64 70l4 8q-5 -47 -11.5 -75t-21.5 -64t-45 -69q-40 -36 -77 -46t-73 -10q-30 0 -56 4t-58 17t-62 29q-36 20 -75 36t-74.5 23t-70.5 7q-60 0 -103 -23q-56 -28 -97 -85z" />
<glyph unicode="&#xd2;" horiz-adv-x="1424" vert-adv-y="2128" d="M80 700q0 340 164 520t468 180t468 -182t164 -518t-164 -518t-468 -182t-468 182t-164 518zM272 700q0 -180 50 -318t150 -208t240 -70t240 70t150 208t50 318t-50 318t-150 208t-240 70t-240 -70t-150 -208t-50 -318zM396 1844q0 32 33 58t61 26q24 0 43 -16t29 -32 l172 -344q4 -10 4 -18q0 -14 -22 -24q-8 0 -18 6l-280 280q-22 34 -22 64z" />
<glyph unicode="&#xd3;" horiz-adv-x="1424" vert-adv-y="2128" d="M80 700q0 340 164 520t468 180t468 -182t164 -518t-164 -518t-468 -182t-468 182t-164 518zM272 700q0 -180 50 -318t150 -208t240 -70t240 70t150 208t50 318t-50 318t-150 208t-240 70t-240 -70t-150 -208t-50 -318zM688 1518q0 8 4 18l172 344q10 16 29 32t43 16 q28 0 61 -26t33 -58q0 -30 -22 -64l-280 -280q-10 -6 -18 -6q-22 10 -22 24z" />
<glyph unicode="&#xd4;" horiz-adv-x="1424" vert-adv-y="2092" d="M80 700q0 340 164 520t468 180t468 -182t164 -518t-164 -518t-468 -182t-468 182t-164 518zM272 700q0 -180 50 -318t150 -208t240 -70t240 70t150 208t50 318t-50 318t-150 208t-240 70t-240 -70t-150 -208t-50 -318zM368 1548l344 344l344 -344l-8 -8l-336 168 l-336 -168z" />
<glyph unicode="&#xd5;" horiz-adv-x="1424" vert-adv-y="2000" d="M80 700q0 340 164 520t468 180t468 -182t164 -518t-164 -518t-468 -182t-468 182t-164 518zM272 700q0 -180 50 -318t150 -208t240 -70t240 70t150 208t50 318t-50 318t-150 208t-240 70t-240 -70t-150 -208t-50 -318zM296 1544q8 64 25 101t37 61t51 48q45 28 76.5 35.5 t58.5 7.5q39 0 83.5 -10.5t86.5 -28.5t78 -38q48 -24 82 -32t58 -8q28 0 58.5 9t61.5 33t64 70l4 8q-5 -47 -11.5 -75t-21.5 -64t-45 -69q-40 -36 -77 -46t-73 -10q-30 0 -56 4t-58 17t-62 29q-36 20 -75 36t-74.5 23t-70.5 7q-60 0 -103 -23q-56 -28 -97 -85z" />
<glyph unicode="&#xd6;" horiz-adv-x="1424" vert-adv-y="1940" d="M80 700q0 340 164 520t468 180t468 -182t164 -518t-164 -518t-468 -182t-468 182t-164 518zM272 700q0 -180 50 -318t150 -208t240 -70t240 70t150 208t50 318t-50 318t-150 208t-240 70t-240 -70t-150 -208t-50 -318zM412 1640q0 44 28 72t72 28t72 -28t28 -72t-28 -72 t-72 -28t-72 28t-28 72zM812 1640q0 44 28 72t72 28t72 -28t28 -72t-28 -72t-72 -28t-72 28t-28 72z" />
<glyph unicode="&#xd7;" horiz-adv-x="1368" vert-adv-y="1200" d="M80 200l500 500l-500 500h192l404 -404l404 404h192l-500 -500l500 -500h-192l-404 404l-404 -404h-192z" />
<glyph unicode="&#xd8;" horiz-adv-x="1424" vert-adv-y="1672" d="M80 48l140 164q-76 98 -108 221t-32 267q0 340 164 520t468 180q124 0 221 -28t189 -98l138 162l84 -84l-140 -164q76 -98 108 -221t32 -267q0 -336 -164 -518t-468 -182q-124 0 -221 28t-189 98l-138 -162zM272 700q0 -112 16 -192t48 -160l688 812q-56 68 -138 102 t-174 34q-140 0 -240 -70t-150 -208t-50 -318zM400 240q56 -68 138 -102t174 -34q140 0 240 70t150 208t50 318q0 112 -16 192t-48 160z" />
<glyph unicode="&#xd9;" horiz-adv-x="1496" vert-adv-y="2128" d="M80 1348v52h464l-104 -104v-884q0 -78 29 -153t104 -115t175 -40t175 40t104 120t29 148v884l-104 104h464v-52l-168 -52v-884q0 -140 -70 -234t-182 -136t-248 -42t-248 42t-182 136t-70 234v884zM436 1844q0 32 33 58t61 26q24 0 43 -16t29 -32l172 -344q4 -10 4 -18 q0 -14 -22 -24q-8 0 -18 6l-280 280q-22 34 -22 64z" />
<glyph unicode="&#xda;" horiz-adv-x="1496" vert-adv-y="2128" d="M80 1348v52h464l-104 -104v-884q0 -78 29 -153t104 -115t175 -40t175 40t104 120t29 148v884l-104 104h464v-52l-168 -52v-884q0 -140 -70 -234t-182 -136t-248 -42t-248 42t-182 136t-70 234v884zM708 1518q0 8 4 18l172 344q10 16 29 32t43 16q28 0 61 -26t33 -58 q0 -30 -22 -64l-280 -280q-10 -6 -18 -6q-22 10 -22 24z" />
<glyph unicode="&#xdb;" horiz-adv-x="1496" vert-adv-y="2092" d="M80 1348v52h464l-104 -104v-884q0 -78 29 -153t104 -115t175 -40t175 40t104 120t29 148v884l-104 104h464v-52l-168 -52v-884q0 -140 -70 -234t-182 -136t-248 -42t-248 42t-182 136t-70 234v884zM404 1548l344 344l344 -344l-8 -8l-336 168l-336 -168z" />
<glyph unicode="&#xdc;" horiz-adv-x="1496" vert-adv-y="1940" d="M80 1348v52h464l-104 -104v-884q0 -78 29 -153t104 -115t175 -40t175 40t104 120t29 148v884l-104 104h464v-52l-168 -52v-884q0 -140 -70 -234t-182 -136t-248 -42t-248 42t-182 136t-70 234v884zM448 1640q0 44 28 72t72 28t72 -28t28 -72t-28 -72t-72 -28t-72 28 t-28 72zM848 1640q0 44 28 72t72 28t72 -28t28 -72t-28 -72t-72 -28t-72 28t-28 72z" />
<glyph unicode="&#xdd;" horiz-adv-x="1344" vert-adv-y="2128" d="M80 1348v52h432l-104 -104l264 -528l264 528l-104 104h432v-52l-168 -52l-328 -656v-536l168 -52v-52h-528v52l168 52v536l-328 656zM644 1518q0 8 4 18l172 344q10 16 29 32t43 16q28 0 61 -26t33 -58q0 -30 -22 -64l-280 -280q-10 -6 -18 -6q-22 10 -22 24z" />
<glyph unicode="&#xde;" horiz-adv-x="1204" vert-adv-y="1600" d="M80 0v52l168 52v1192l-168 52v52h528v-52l-168 -52v-276l87 44q80 45 169 46q420 -8 428 -410q-8 -402 -428 -410q-89 1 -169 46l-87 44v-276l168 -52v-52h-528zM440 476q112 -54 256 -64q228 8 236 288q-8 280 -236 288q-144 -10 -256 -64v-448z" />
<glyph unicode="&#xdf;" horiz-adv-x="1184" vert-adv-y="1600" d="M80 0v52l168 52v848q0 160 62 257t156 144t206 47q72 0 157 -35t144 -112t67 -193q0 -158 -81 -217t-165 -63l166 -148q144 -132 144 -324q0 -112 -45 -178t-116 -98t-175 -32q-48 0 -98 18t-94 72t-44 148q0 68 37 101t83 33q48 0 78 -25t30 -67q0 -52 -19 -74t-63 -26 q36 -76 90 -76q60 0 102 56t42 148q0 64 -28 152t-128 188l-124 124q-28 32 20 88q82 12 139 64t57 136q0 66 -21 121t-60 85t-95 30q-68 0 -128 -50t-82 -130t-22 -164v-848l104 -104h-464z" />
<glyph unicode="&#xe0;" horiz-adv-x="920" vert-adv-y="1648" d="M80 282q4 144 88 215t204 75q154 -6 218 -92v102q-4 114 -44 168t-130 58q-64 -2 -114 -36t-64 -108h-142q24 102 113 174t207 74q160 -4 258 -75t108 -255v-472l58 -58v-52h-160l-90 46q-54 -44 -188 -46q-168 2 -243 85t-79 197zM80 1364q0 32 33 58t61 26q24 0 43 -16 t29 -32l172 -344q4 -10 4 -18q0 -14 -22 -24q-8 0 -18 6l-280 280q-22 34 -22 64zM220 284q4 -76 49 -126t133 -54q82 4 133 30t55 88v111q-10 59 -63 95t-155 40q-62 -4 -105 -52t-47 -132z" />
<glyph unicode="&#xe1;" horiz-adv-x="920" vert-adv-y="1648" d="M80 282q4 144 88 215t204 75q154 -6 218 -92v102q-4 114 -44 168t-130 58q-64 -2 -114 -36t-64 -108h-142q24 102 113 174t207 74q160 -4 258 -75t108 -255v-472l58 -58v-52h-160l-90 46q-54 -44 -188 -46q-168 2 -243 85t-79 197zM220 284q4 -76 49 -126t133 -54 q82 4 133 30t55 88v111q-10 59 -63 95t-155 40q-62 -4 -105 -52t-47 -132zM384 1038q0 8 4 18l172 344q10 16 29 32t43 16q28 0 61 -26t33 -58q0 -30 -22 -64l-280 -280q-10 -6 -18 -6q-22 10 -22 24z" />
<glyph unicode="&#xe2;" horiz-adv-x="920" vert-adv-y="1576" d="M80 282q4 144 88 215t204 75q154 -6 218 -92v102q-4 114 -44 168t-130 58q-64 -2 -114 -36t-64 -108h-142q24 102 113 174t207 74q160 -4 258 -75t108 -255v-472l58 -58v-52h-160l-90 46q-54 -44 -188 -46q-168 2 -243 85t-79 197zM116 1032l344 344l344 -344l-8 -8 l-336 168l-336 -168zM220 284q4 -76 49 -126t133 -54q82 4 133 30t55 88v111q-10 59 -63 95t-155 40q-62 -4 -105 -52t-47 -132z" />
<glyph unicode="&#xe3;" horiz-adv-x="920" vert-adv-y="1504" d="M80 282q4 144 88 215t204 75q154 -6 218 -92v102q-4 114 -44 168t-130 58q-64 -2 -114 -36t-64 -108h-142q24 102 113 174t207 74q160 -4 258 -75t108 -255v-472l58 -58v-52h-160l-90 46q-54 -44 -188 -46q-168 2 -243 85t-79 197zM80 1024q8 252 216 256q80 0 156 -44 t156 -44q128 0 188 112h28q-8 -252 -216 -256q-80 0 -156 44t-156 44q-128 0 -188 -112h-28zM220 284q4 -76 49 -126t133 -54q82 4 133 30t55 88v111q-10 59 -63 95t-155 40q-62 -4 -105 -52t-47 -132z" />
<glyph unicode="&#xe4;" horiz-adv-x="920" vert-adv-y="1456" d="M80 282q4 144 88 215t204 75q154 -6 218 -92v102q-4 114 -44 168t-130 58q-64 -2 -114 -36t-64 -108h-142q24 102 113 174t207 74q160 -4 258 -75t108 -255v-472l58 -58v-52h-160l-90 46q-54 -44 -188 -46q-168 2 -243 85t-79 197zM160 1156q0 44 28 72t72 28t72 -28 t28 -72t-28 -72t-72 -28t-72 28t-28 72zM220 284q4 -76 49 -126t133 -54q82 4 133 30t55 88v111q-10 59 -63 95t-155 40q-62 -4 -105 -52t-47 -132zM560 1156q0 44 28 72t72 28t72 -28t28 -72t-28 -72t-72 -28t-72 28t-28 72z" />
<glyph unicode="&#xe5;" horiz-adv-x="920" vert-adv-y="1636" d="M80 282q4 144 88 215t204 75q154 -6 218 -92v102q-4 114 -44 168t-130 58q-64 -2 -114 -36t-64 -108h-142q24 102 113 174t207 74q160 -4 258 -75t108 -255v-472l58 -58v-52h-160l-90 46q-54 -44 -188 -46q-168 2 -243 85t-79 197zM220 284q4 -76 49 -126t133 -54 q82 4 133 30t55 88v111q-10 59 -63 95t-155 40q-62 -4 -105 -52t-47 -132zM220 1236q0 52 24 102t74 74t102 24t102 -24t74 -74t24 -102t-24 -102t-74 -74t-102 -24t-102 24t-74 74t-24 102zM300 1236q0 -38 15 -64t41 -41t64 -15t64 15t41 41t15 64t-15 64t-41 41t-64 15 t-64 -15t-41 -41t-15 -64z" />
<glyph unicode="&#xe6;" horiz-adv-x="1484" vert-adv-y="1112" d="M80 282q4 144 88 215t204 75q154 -6 218 -92v102q-4 114 -44 168t-130 58q-64 -2 -114 -36t-64 -108h-142q24 102 113 174t207 74q48 0 104 -11t106 -35t90 -69q57 47 114 71.5t105.5 34t90.5 9.5q77 0 177.5 -44t149.5 -143t49 -233v-4h-620q0 -148 30.5 -228t85.5 -118 t128 -38q64 0 126.5 18t117.5 66l80 80l56 -56l-80 -80q-36 -38 -86.5 -70t-106 -47t-107.5 -15q-48 0 -112 13t-115 43t-79 64q-60 -56 -136 -88t-182 -32q-168 2 -243 85t-79 197zM220 284q4 -76 49 -126t133 -54q82 4 133 30t55 88v111q-10 59 -63 95t-155 40 q-62 -4 -105 -52t-47 -132zM790 592h468q-11 66 -40 116t-84.5 75t-107.5 25t-104.5 -20t-87.5 -74.5t-44 -121.5z" />
<glyph unicode="&#xe7;" horiz-adv-x="992" vert-adv-y="1712" d="M80 456q0 128 54 238t164 164t238 54q188 0 274 -90t86 -194q0 -38 -15 -64t-41 -41t-64 -15t-64 15t-41 41t-15 64q0 46 22 75t52 38q-26 36 -82 51.5t-112 15.5q-78 0 -141 -42t-93 -124t-30 -186t30 -186t93 -124t141 -42q64 0 126.5 18t117.5 66l80 80l56 -56 l-80 -80q-36 -38 -86.5 -70t-95 -45t-71.5 -15l-63 -126q72 0 136 -28t98 -89t34 -119q0 -80 -36 -136t-104 -80t-164 -24t-188 58t-120 162l48 48q28 -70 68 -105t85 -47t107 -12q60 0 94 12t56 42t22 82q0 40 -18 70t-58 46t-92 16h-148l116 234q-112 16 -198 70.5 t-132 159t-46 220.5z" />
<glyph unicode="&#xe8;" horiz-adv-x="976" vert-adv-y="1648" d="M80 484q0 92 45 198.5t159 168t232 61.5q77 0 177.5 -44t149.5 -143t49 -233v-4h-620q0 -148 30.5 -228t85.5 -118t128 -38q64 0 126.5 18t117.5 66l80 80l56 -56l-80 -80q-36 -38 -86.5 -70t-106 -47t-107.5 -15q-56 0 -141 21.5t-141.5 75t-90 121.5t-48.5 142.5 t-15 123.5zM184 1364q0 32 33 58t61 26q24 0 43 -16t29 -32l172 -344q4 -10 4 -18q0 -14 -22 -24q-8 0 -18 6l-280 280q-22 34 -22 64zM280 592h468q-11 66 -40 116t-84.5 75t-107.5 25t-104.5 -20t-87.5 -74.5t-44 -121.5z" />
<glyph unicode="&#xe9;" horiz-adv-x="976" vert-adv-y="1648" d="M80 484q0 92 45 198.5t159 168t232 61.5q77 0 177.5 -44t149.5 -143t49 -233v-4h-620q0 -148 30.5 -228t85.5 -118t128 -38q64 0 126.5 18t117.5 66l80 80l56 -56l-80 -80q-36 -38 -86.5 -70t-106 -47t-107.5 -15q-56 0 -141 21.5t-141.5 75t-90 121.5t-48.5 142.5 t-15 123.5zM280 592h468q-11 66 -40 116t-84.5 75t-107.5 25t-104.5 -20t-87.5 -74.5t-44 -121.5zM496 1038q0 8 4 18l172 344q10 16 29 32t43 16q28 0 61 -26t33 -58q0 -30 -22 -64l-280 -280q-10 -6 -18 -6q-22 10 -22 24z" />
<glyph unicode="&#xea;" horiz-adv-x="976" vert-adv-y="1576" d="M80 484q0 92 45 198.5t159 168t232 61.5q77 0 177.5 -44t149.5 -143t49 -233v-4h-620q0 -148 30.5 -228t85.5 -118t128 -38q64 0 126.5 18t117.5 66l80 80l56 -56l-80 -80q-36 -38 -86.5 -70t-106 -47t-107.5 -15q-56 0 -141 21.5t-141.5 75t-90 121.5t-48.5 142.5 t-15 123.5zM144 1032l344 344l344 -344l-8 -8l-336 168l-336 -168zM280 592h468q-11 66 -40 116t-84.5 75t-107.5 25t-104.5 -20t-87.5 -74.5t-44 -121.5z" />
<glyph unicode="&#xeb;" horiz-adv-x="976" vert-adv-y="1456" d="M80 484q0 92 45 198.5t159 168t232 61.5q77 0 177.5 -44t149.5 -143t49 -233v-4h-620q0 -148 30.5 -228t85.5 -118t128 -38q64 0 126.5 18t117.5 66l80 80l56 -56l-80 -80q-36 -38 -86.5 -70t-106 -47t-107.5 -15q-56 0 -141 21.5t-141.5 75t-90 121.5t-48.5 142.5 t-15 123.5zM204 1156q0 44 28 72t72 28t72 -28t28 -72t-28 -72t-72 -28t-72 28t-28 72zM280 592h468q-11 66 -40 116t-84.5 75t-107.5 25t-104.5 -20t-87.5 -74.5t-44 -121.5zM604 1156q0 44 28 72t72 28t72 -28t28 -72t-28 -72t-72 -28t-72 28t-28 72z" />
<glyph unicode="&#xec;" horiz-adv-x="688" vert-adv-y="1650" d="M32 1364q0 32 33 58t61 26q24 0 43 -16t29 -32l172 -344q4 -10 4 -18q0 -14 -22 -24q-8 0 -18 6l-280 280q-22 34 -22 64zM80 -2v52l168 52v692l-64 64v52h186l70 -36v-772l168 -52v-52h-528z" />
<glyph unicode="&#xed;" horiz-adv-x="688" vert-adv-y="1650" d="M80 -2v52l168 52v692l-64 64v52h186l70 -36v-772l168 -52v-52h-528zM308 1038q0 8 4 18l172 344q10 16 29 32t43 16q28 0 61 -26t33 -58q0 -30 -22 -64l-280 -280q-10 -6 -18 -6q-22 10 -22 24z" />
<glyph unicode="&#xee;" horiz-adv-x="688" vert-adv-y="1578" d="M0 1032l344 344l344 -344l-8 -8l-336 168l-336 -168zM80 -2v52l168 52v692l-64 64v52h186l70 -36v-772l168 -52v-52h-528z" />
<glyph unicode="&#xef;" horiz-adv-x="688" vert-adv-y="1458" d="M44 1156q0 44 28 72t72 28t72 -28t28 -72t-28 -72t-72 -28t-72 28t-28 72zM80 -2v52l168 52v692l-64 64v52h186l70 -36v-772l168 -52v-52h-528zM444 1156q0 44 28 72t72 28t72 -28t28 -72t-28 -72t-72 -28t-72 28t-28 72z" />
<glyph unicode="&#xf0;" horiz-adv-x="1088" vert-adv-y="1600" d="M80 484q0 100 60 210t168 164t236 54q92 0 198 -54q-46 144 -123 256l-279 -108l-54 110l253 97q-78 83 -153 126l122 61q98 -72 160 -138l272 104l54 -108l-239 -92q105 -136 160 -286t74 -251t19 -201t-60 -210t-168 -164t-232 -54q-156 0 -269 70t-156 182t-43 232z M272 484q0 -98 32 -186t94 -141t150 -53q82 0 141 42t93 126t34 156q0 98 -32 186t-94 141t-146 53q-86 0 -145 -42t-93 -126t-34 -156z" />
<glyph unicode="&#xf1;" horiz-adv-x="1332" vert-adv-y="1504" d="M80 0v52l168 52v704l-52 52h-52v50h296v-138q34 62 107 101t165 39q112 0 196.5 -28t130 -108t45.5 -176v-496l168 -52v-52h-464l104 104v496q-4 100 -48 154t-132 54q-84 0 -148 -31t-124 -141v-532l104 -104h-464zM328 1024q8 252 216 256q80 0 156 -44t156 -44 q128 0 188 112h28q-8 -252 -216 -256q-80 0 -156 44t-156 44q-128 0 -188 -112h-28z" />
<glyph unicode="&#xf2;" horiz-adv-x="1072" vert-adv-y="1648" d="M80 456q0 128 54 238t164 164t238 54t238 -54t164 -164t54 -238t-54 -238t-164 -164t-238 -54t-238 54t-164 164t-54 238zM208 1364q0 32 33 58t61 26q24 0 43 -16t29 -32l172 -344q4 -10 4 -18q0 -14 -22 -24q-8 0 -18 6l-280 280q-22 34 -22 64zM272 456 q0 -104 30 -186t93 -124t141 -42t141 42t93 124t30 186t-30 186t-93 124t-141 42t-141 -42t-93 -124t-30 -186z" />
<glyph unicode="&#xf3;" horiz-adv-x="1072" vert-adv-y="1648" d="M80 456q0 128 54 238t164 164t238 54t238 -54t164 -164t54 -238t-54 -238t-164 -164t-238 -54t-238 54t-164 164t-54 238zM272 456q0 -104 30 -186t93 -124t141 -42t141 42t93 124t30 186t-30 186t-93 124t-141 42t-141 -42t-93 -124t-30 -186zM516 1038q0 8 4 18 l172 344q10 16 29 32t43 16q28 0 61 -26t33 -58q0 -30 -22 -64l-280 -280q-10 -6 -18 -6q-22 10 -22 24z" />
<glyph unicode="&#xf4;" horiz-adv-x="1072" vert-adv-y="1576" d="M80 456q0 128 54 238t164 164t238 54t238 -54t164 -164t54 -238t-54 -238t-164 -164t-238 -54t-238 54t-164 164t-54 238zM192 1032l344 344l344 -344l-8 -8l-336 168l-336 -168zM272 456q0 -104 30 -186t93 -124t141 -42t141 42t93 124t30 186t-30 186t-93 124t-141 42 t-141 -42t-93 -124t-30 -186z" />
<glyph unicode="&#xf5;" horiz-adv-x="1072" vert-adv-y="1504" d="M80 456q0 128 54 238t164 164t238 54t238 -54t164 -164t54 -238t-54 -238t-164 -164t-238 -54t-238 54t-164 164t-54 238zM164 1024q8 252 216 256q80 0 156 -44t156 -44q128 0 188 112h28q-8 -252 -216 -256q-80 0 -156 44t-156 44q-128 0 -188 -112h-28zM272 456 q0 -104 30 -186t93 -124t141 -42t141 42t93 124t30 186t-30 186t-93 124t-141 42t-141 -42t-93 -124t-30 -186z" />
<glyph unicode="&#xf6;" horiz-adv-x="1072" vert-adv-y="1456" d="M80 456q0 128 54 238t164 164t238 54t238 -54t164 -164t54 -238t-54 -238t-164 -164t-238 -54t-238 54t-164 164t-54 238zM236 1156q0 44 28 72t72 28t72 -28t28 -72t-28 -72t-72 -28t-72 28t-28 72zM272 456q0 -104 30 -186t93 -124t141 -42t141 42t93 124t30 186 t-30 186t-93 124t-141 42t-141 -42t-93 -124t-30 -186zM636 1156q0 44 28 72t72 28t72 -28t28 -72t-28 -72t-72 -28t-72 28t-28 72z" />
<glyph unicode="&#xf7;" vert-adv-y="1008" d="M174 640v120h752v-120h-752zM450 396q0 44 28 72t72 28t72 -28t28 -72t-28 -72t-72 -28t-72 28t-28 72zM450 1004q0 44 28 72t72 28t72 -28t28 -72t-28 -72t-72 -28t-72 28t-28 72z" />
<glyph unicode="&#xf8;" horiz-adv-x="1072" vert-adv-y="1688" d="M80 456q0 128 54 238t164 164t238 54q76 0 148 -19l154 307l112 -56l-150 -301q96 -55 144 -162t48 -225q0 -128 -54 -238t-164 -164t-238 -54q-76 0 -148 19l-154 -307l-112 56l150 301q-96 55 -144 162t-48 225zM272 456q0 -74 16 -140t50 -115l295 589q-47 18 -97 18 q-78 0 -141 -42t-93 -124t-30 -186zM439 122q47 -18 97 -18q78 0 141 42t93 124t30 186q0 74 -16 140t-50 115z" />
<glyph unicode="&#xf9;" horiz-adv-x="1212" vert-adv-y="1648" d="M80 860v50h398l-102 -102v-496q4 -100 48 -154t132 -54q84 0 148 31t124 141v532l-102 102h398v-50h-52l-52 -52v-704l52 -52h52v-52h-296v140q-34 -62 -107 -101t-165 -39q-112 0 -196.5 28t-130 108t-45.5 176v496l-52 52h-52zM260 1364q0 32 33 58t61 26q24 0 43 -16 t29 -32l172 -344q4 -10 4 -18q0 -14 -22 -24q-8 0 -18 6l-280 280q-22 34 -22 64z" />
<glyph unicode="&#xfa;" horiz-adv-x="1212" vert-adv-y="1648" d="M80 860v50h398l-102 -102v-496q4 -100 48 -154t132 -54q84 0 148 31t124 141v532l-102 102h398v-50h-52l-52 -52v-704l52 -52h52v-52h-296v140q-34 -62 -107 -101t-165 -39q-112 0 -196.5 28t-130 108t-45.5 176v496l-52 52h-52zM608 1038q0 8 4 18l172 344q10 16 29 32 t43 16q28 0 61 -26t33 -58q0 -30 -22 -64l-280 -280q-10 -6 -18 -6q-22 10 -22 24z" />
<glyph unicode="&#xfb;" horiz-adv-x="1212" vert-adv-y="1576" d="M80 860v50h398l-102 -102v-496q4 -100 48 -154t132 -54q84 0 148 31t124 141v532l-102 102h398v-50h-52l-52 -52v-704l52 -52h52v-52h-296v140q-34 -62 -107 -101t-165 -39q-112 0 -196.5 28t-130 108t-45.5 176v496l-52 52h-52zM264 1032l344 344l344 -344l-8 -8 l-336 168l-336 -168z" />
<glyph unicode="&#xfc;" horiz-adv-x="1212" vert-adv-y="1456" d="M80 860v50h398l-102 -102v-496q4 -100 48 -154t132 -54q84 0 148 31t124 141v532l-102 102h398v-50h-52l-52 -52v-704l52 -52h52v-52h-296v140q-34 -62 -107 -101t-165 -39q-112 0 -196.5 28t-130 108t-45.5 176v496l-52 52h-52zM306 1156q0 44 28 72t72 28t72 -28 t28 -72t-28 -72t-72 -28t-72 28t-28 72zM706 1156q0 44 28 72t72 28t72 -28t28 -72t-28 -72t-72 -28t-72 28t-28 72z" />
<glyph unicode="&#xfd;" horiz-adv-x="1384" vert-adv-y="2136" d="M80 860v50h446l-102 -102l320 -640l272 640l-102 102h390v-50l-168 -52l-460 -1080q-62 -138 -127 -177t-149 -39q-100 0 -158 36t-90 102t-32 146q0 38 15 64t41 41t64 15t64 -15t41 -41t15 -64q0 -46 -22 -75t-52 -38q4 -31 31 -49t83 -18q76 0 108 37t48 75l108 252 l-416 828zM680 1038q0 8 4 18l172 344q10 16 29 32t43 16q28 0 61 -26t33 -58q0 -30 -22 -64l-280 -280q-10 -6 -18 -6q-22 10 -22 24z" />
<glyph unicode="&#xfe;" horiz-adv-x="1216" vert-adv-y="2088" d="M80 -436l168 56v1676l-168 52v52h284l76 -76v-536q52 66 118 95t162 29q144 0 243 -72t136 -180t37 -204t-37 -204t-136 -180t-243 -72q-108 0 -178 28t-102 76v-484l168 -56v-52h-528v52zM440 248q36 -72 112 -108t168 -36q76 0 129 51t74 134t21 167t-21 167t-74 134 t-129 51q-98 0 -176 -44t-104 -120v-396z" />
<glyph unicode="&#xff;" horiz-adv-x="1384" vert-adv-y="1944" d="M80 860v50h446l-102 -102l320 -640l272 640l-102 102h390v-50l-168 -52l-460 -1080q-62 -138 -127 -177t-149 -39q-100 0 -158 36t-90 102t-32 146q0 38 15 64t41 41t64 15t64 -15t41 -41t15 -64q0 -46 -22 -75t-52 -38q4 -31 31 -49t83 -18q76 0 108 37t48 75l108 252 l-416 828zM428 1156q0 44 28 72t72 28t72 -28t28 -72t-28 -72t-72 -28t-72 28t-28 72zM828 1156q0 44 28 72t72 28t72 -28t28 -72t-28 -72t-72 -28t-72 28t-28 72z" />
<glyph unicode="&#x152;" horiz-adv-x="1676" vert-adv-y="1600" d="M80 700q0 188 55 357t174 256t267 87h1020v-304h-52l-100 200h-580q96 -80 147 -221t59 -323h266l56 168h52v-440h-52l-56 168h-266q-8 -182 -59 -323t-147 -221h580l100 200h52v-304h-1020q-152 0 -269 87t-172 256t-55 357zM272 700q0 -138 23 -284t95 -229t186 -83 t186 83t95 229t23 284t-23 284t-95 229t-186 83t-186 -83t-95 -229t-23 -284z" />
<glyph unicode="&#x153;" horiz-adv-x="1696" vert-adv-y="1112" d="M80 456q0 128 54 238t164 164t238 54q112 0 207.5 -40t150.5 -108q68 76 162 112t180 36q76 0 177 -44t150 -143t49 -233v-4h-620q0 -148 30.5 -228t85.5 -118t128 -38q64 0 126.5 18t117.5 66l80 80l56 -56l-80 -80q-36 -38 -86.5 -70t-106 -47t-107.5 -15 q-70 0 -168 30t-168 127q-46 -67 -146 -112t-218 -45q-128 0 -238 54t-164 164t-54 238zM272 456q0 -104 30 -186t93 -124t141 -42t141 42t93 124t30 186t-30 186t-93 124t-141 42t-141 -42t-93 -124t-30 -186zM1000 592h468q-11 66 -40 116t-84.5 75t-107.5 25t-104.5 -20 t-87.5 -74.5t-44 -121.5z" />
<glyph unicode="&#x178;" horiz-adv-x="1344" vert-adv-y="1940" d="M80 1348v52h432l-104 -104l264 -528l264 528l-104 104h432v-52l-168 -52l-328 -656v-536l168 -52v-52h-528v52l168 52v536l-328 656zM372 1640q0 44 28 72t72 28t72 -28t28 -72t-28 -72t-72 -28t-72 28t-28 72zM772 1640q0 44 28 72t72 28t72 -28t28 -72t-28 -72t-72 -28 t-72 28t-28 72z" />
<glyph unicode="&#x2c6;" horiz-adv-x="868" vert-adv-y="552" d="M96 1064l344 344l344 -344l-8 -8l-336 168l-336 -168z" />
<glyph unicode="&#x2dc;" horiz-adv-x="880" vert-adv-y="480" d="M64 1008q8 252 216 256q80 0 156 -44t156 -44q128 0 188 112h28q-8 -252 -216 -256q-80 0 -156 44t-156 44q-128 0 -188 -112h-28z" />
<glyph unicode="&#x2000;" horiz-adv-x="990" vert-adv-y="0" />
<glyph unicode="&#x2001;" horiz-adv-x="1980" vert-adv-y="0" />
<glyph unicode="&#x2002;" horiz-adv-x="990" vert-adv-y="0" />
<glyph unicode="&#x2003;" horiz-adv-x="1980" vert-adv-y="0" />
<glyph unicode="&#x2004;" horiz-adv-x="660" vert-adv-y="0" />
<glyph unicode="&#x2005;" horiz-adv-x="495" vert-adv-y="0" />
<glyph unicode="&#x2006;" horiz-adv-x="330" vert-adv-y="0" />
<glyph unicode="&#x2007;" horiz-adv-x="330" vert-adv-y="0" />
<glyph unicode="&#x2008;" horiz-adv-x="247" vert-adv-y="0" />
<glyph unicode="&#x2009;" horiz-adv-x="396" vert-adv-y="0" />
<glyph unicode="&#x200a;" horiz-adv-x="110" vert-adv-y="0" />
<glyph unicode="&#x2010;" horiz-adv-x="912" vert-adv-y="320" d="M80 564v120h752v-120h-752z" />
<glyph unicode="&#x2011;" horiz-adv-x="912" vert-adv-y="320" d="M80 564v120h752v-120h-752z" />
<glyph unicode="&#x2012;" horiz-adv-x="912" vert-adv-y="320" d="M80 564v120h752v-120h-752z" />
<glyph unicode="&#x2013;" horiz-adv-x="1720" vert-adv-y="320" d="M80 564v120h1560v-120h-1560z" />
<glyph unicode="&#x2014;" horiz-adv-x="1968" vert-adv-y="320" d="M80 564v120h1808v-120h-1808z" />
<glyph unicode="&#x2018;" horiz-adv-x="490" vert-adv-y="774" d="M80 1282q0 150 90 248t196 138q12 4 22 4q5 0 7.5 -3t2.5 -7q0 -11 -8 -18q-104 -70 -148 -134t-44 -146l14 -24q18 34 62 34q62 0 99 -32t37 -92q0 -62 -39 -107t-117 -45q-86 0 -130 55t-44 129z" />
<glyph unicode="&#x2019;" horiz-adv-x="490" vert-adv-y="774" d="M80 1520q0 62 39 107t117 45q86 0 130 -55t44 -129q0 -150 -90 -248t-196 -138q-12 -4 -22 -4q-5 0 -7.5 3t-2.5 7q0 11 8 18q104 70 148 134t44 146l-14 24q-18 -34 -62 -34q-62 0 -99 32t-37 92z" />
<glyph unicode="&#x201a;" horiz-adv-x="566" vert-adv-y="774" d="M80 84q0 62 39 107t117 45q86 0 130 -55t44 -129q0 -150 -90 -248t-196 -138q-12 -4 -22 -4q-5 0 -7.5 3t-2.5 7q0 11 8 18q104 70 148 134t44 146l-14 24q-18 -34 -62 -34q-62 0 -99 32t-37 92z" />
<glyph unicode="&#x201c;" horiz-adv-x="1006" vert-adv-y="774" d="M80 1282q0 150 90 248t196 138q12 4 22 4q5 0 7.5 -3t2.5 -7q0 -11 -8 -18q-104 -70 -148 -134t-44 -146l14 -24q18 34 62 34q62 0 99 -32t37 -92q0 -62 -39 -107t-117 -45q-86 0 -130 55t-44 129zM520 1282q0 150 90 248t196 138q12 4 22 4q5 0 7.5 -3t2.5 -7 q0 -11 -8 -18q-104 -70 -148 -134t-44 -146l14 -24q18 34 62 34q62 0 99 -32t37 -92q0 -62 -39 -107t-117 -45q-86 0 -130 55t-44 129z" />
<glyph unicode="&#x201d;" horiz-adv-x="1006" vert-adv-y="774" d="M80 1520q0 62 39 107t117 45q86 0 130 -55t44 -129q0 -150 -90 -248t-196 -138q-12 -4 -22 -4q-5 0 -7.5 3t-2.5 7q0 11 8 18q104 70 148 134t44 146l-14 24q-18 -34 -62 -34q-62 0 -99 32t-37 92zM520 1520q0 62 39 107t117 45q86 0 130 -55t44 -129q0 -150 -90 -248 t-196 -138q-12 -4 -22 -4q-5 0 -7.5 3t-2.5 7q0 11 8 18q104 70 148 134t44 146l-14 24q-18 -34 -62 -34q-62 0 -99 32t-37 92z" />
<glyph unicode="&#x201e;" horiz-adv-x="1006" vert-adv-y="774" d="M80 84q0 62 39 107t117 45q86 0 130 -55t44 -129q0 -150 -90 -248t-196 -138q-12 -4 -22 -4q-5 0 -7.5 3t-2.5 7q0 11 8 18q104 70 148 134t44 146l-14 24q-18 -34 -62 -34q-62 0 -99 32t-37 92zM520 84q0 62 39 107t117 45q86 0 130 -55t44 -129q0 -150 -90 -248 t-196 -138q-12 -4 -22 -4q-5 0 -7.5 3t-2.5 7q0 11 8 18q104 70 148 134t44 146l-14 24q-18 -34 -62 -34q-62 0 -99 32t-37 92z" />
<glyph unicode="&#x2022;" horiz-adv-x="648" vert-adv-y="600" d="M124 700q0 52 24 102t74 74t102 24t102 -24t74 -74t24 -102t-24 -102t-74 -74t-102 -24t-102 24t-74 74t-24 102z" />
<glyph unicode="&#x2026;" horiz-adv-x="1240" vert-adv-y="440" d="M140 120q0 38 15 64t41 41t64 15t64 -15t41 -41t15 -64t-15 -64t-41 -41t-64 -15t-64 15t-41 41t-15 64zM500 120q0 38 15 64t41 41t64 15t64 -15t41 -41t15 -64t-15 -64t-41 -41t-64 -15t-64 15t-41 41t-15 64zM860 120q0 38 15 64t41 41t64 15t64 -15t41 -41t15 -64 t-15 -64t-41 -41t-64 -15t-64 15t-41 41t-15 64z" />
<glyph unicode="&#x202f;" horiz-adv-x="396" vert-adv-y="0" />
<glyph unicode="&#x2039;" horiz-adv-x="600" vert-adv-y="872" d="M80 516l336 336h104l-248 -336l248 -336h-104z" />
<glyph unicode="&#x203a;" horiz-adv-x="600" vert-adv-y="872" d="M80 180l248 336l-248 336h104l336 -336l-336 -336h-104z" />
<glyph unicode="&#x205f;" horiz-adv-x="495" vert-adv-y="0" />
<glyph unicode="&#x20ac;" horiz-adv-x="1528" vert-adv-y="1600" d="M80 488v104h252v216h-252v104h252q0 148 52 258t154 170t250 60h212q192 0 288 -58t140 -178v-148h-300v188q0 36 -30 64t-98 28h-212q-100 0 -159 -44t-82 -134t-23 -206h576v-104h-576v-216h576v-104h-576q4 -208 105 -296t271 -88q124 0 176 36t52 80v80h300v-80 q0 -96 -134 -158t-394 -62q-216 0 -342 82t-176 196t-50 210h-252z" />
<glyph unicode="&#x2122;" horiz-adv-x="2040" vert-adv-y="1110" d="M80 1140v258h840v-258h-52l-74 148h-198v-696l104 -52v-52h-400v52l104 52v696h-198l-74 -148h-52zM948 488v52l104 52v704l-104 52v50h292l260 -516l260 516h292v-50l-104 -52v-704l104 -52v-52h-432v36l136 68v558l-256 -516l-256 516v-558l136 -68v-36h-432z" />
<glyph unicode="&#x25fc;" horiz-adv-x="910" vert-adv-y="1820" d="M0 0v910h910v-910h-910z" />
</font>
</defs>
</svg>
